<svg version="1.2" xmlns="http://www.w3.org/2000/svg" viewBox="0 0 1753 1304" width="1753" height="1304"><defs><linearGradient id="P" gradientUnits="userSpaceOnUse"/><linearGradient id="g1" x2="1" href="#P" gradientTransform="matrix(0,-1304,1752.985,0,876.507,1304)"><stop stop-color="#b13941"/><stop offset="1" stop-color="#55181c"/></linearGradient></defs><style>.a{fill:url(#g1)}</style><path fill-rule="evenodd" class="a" d="m947.8 795q-0.4 0-0.8-0.1c-12.7-3.8-20.8-77.2-20.8-107.2 0-30.5-10.5-66.7-28.1-97-16.6-28.5-16.6-40.1 0-65.7 18.1-27.9 58.2-37.9 80.5-41.4 15.1-2.4 34.6-0.6 52.2 4.8 19.2 6.2 36.9 17.1 47.4 29.2 9.2 10.7 16.7 25.6 21.5 43 16.5 38.9-6.7 68.9-29.1 98-4.2 5.4-8.5 11.1-12.4 16.5-11.6 17.3-36.7 48.4-59.6 74-15.6 17.4-42.4 45.9-50.8 45.9zm44.9-311.1c-4.9 0-9.6 0.3-13.9 1-22.1 3.5-61.8 13.4-79.7 40.9-16.2 24.9-16.2 36.3 0 64.2 17.8 30.5 28.3 67 28.3 97.7 0 33.8 9 102.7 19.9 105.9 4.8 1.5 23.6-15.6 50.4-45.4 22.9-25.6 47.9-56.6 59.5-73.8 3.9-5.6 8.2-11.2 12.4-16.6 22.2-28.8 45.2-58.5 29-96.8-4.9-17.3-12.2-32-21.3-42.5-10.2-11.8-28.1-22.8-46.9-28.8-12.3-3.8-25.7-5.8-37.7-5.8zm-40.5 236.2q-0.6 0-1.2-0.2c-12-2.9-13.1-31.1-14.2-61-0.9-24.1-1.8-48.9-8.7-60.2l-1.6-2.7c-14.7-23.9-26.2-42.8-3-67.2 12.2-13 31.1-20.6 53.2-21.5 9.6-0.4 19.6 0.5 28.7 2.8 13.9 1.3 25.7 8.7 34 21.3 7 10.8 11.1 25 11.1 39-2 22.7-9.4 42.6-23.5 62.8-9 11-17.7 22.3-25 32l-5.5 7.4c-20.6 27.4-35.8 47.5-44.3 47.5zm-0.9-1.4c7.5 1.8 23.7-19.7 44.2-46.9l5.6-7.4c7.3-9.7 15.9-21 24.9-32 13.9-20 21.3-39.7 23.2-62 0-36-22.1-57-44-59-9.1-2.2-18.9-3.2-28.5-2.8-21.7 0.9-40.3 8.4-52.4 21.1-22.4 23.7-11.7 41.3 3.2 65.6l1.6 2.7c7.1 11.6 8 36.6 8.9 60.8 1.1 28.1 2.2 57.2 13.3 59.9zm6.8-46.4q-1.4 0-2.7-0.5c-7.8-3.3-8.6-22.8-9.4-43.4-0.8-16.8-1.5-34.2-6.2-41.9-10.2-16.9-15.7-28.3-4.9-45.1 10.3-15.9 57.9-16.4 75.8-4.3 8.6 5.8 13.6 17.5 13.7 32.1 0.2 14.7-4.7 30.7-13.5 43.7l-2 2.9c-17.1 25.4-38.2 56.5-50.8 56.5zm15.6-142.5c-16.3 0-32.3 4-37.7 12.3-10.4 16.2-5.1 27.3 4.9 43.7 4.8 8 5.6 25.6 6.3 42.6 0.8 19.2 1.7 39.2 8.7 42.2 11.2 4.8 34.8-30.1 52-55.6l2-2.9c8.6-12.8 13.5-28.4 13.3-42.9-0.2-14.2-5-25.4-13.2-31-8.1-5.5-22.3-8.4-36.3-8.4zm-12.3 96.9q-0.3 0-0.5-0.1c-7.2-2.2-7.4-45.3-7.4-45.8 0-5.4-2.8-8.4-5.3-10.9-2.2-2.2-4.3-4.3-3.5-7.6 1.6-6 11.5-16.7 25.7-16.7q0.1 0 0.3 0c12.3 0.1 20.8 3.3 25.1 9.4 6 8.5 2.8 20.3 1.3 26-3.3 12-28.6 45.7-35.7 45.7zm9-79.8c-13.6 0-23 10.1-24.5 15.8-0.6 2.5 1 4 3.1 6.2 2.6 2.7 5.8 5.9 5.8 11.9 0 14.9 1.9 43.2 6.4 44.5 5.1 1.5 31.3-32.3 34.7-44.7 1.5-5.4 4.6-16.8-1.1-24.8-4.1-5.8-12.2-8.8-24.2-8.9q-0.1 0-0.2 0zm-1.1 34.6q-0.1 0-0.2 0-0.9-0.2-1.2-1.8c-0.9-5.9-2-6.6-3.1-7.3-0.8-0.6-1.7-1.2-2.4-3.2-0.8-2-0.2-3.9 1.6-5.2 2.3-1.7 6.4-1.8 9 0.9 2.5 2.6 0.8 9.7-1.1 13.6-1.3 2.7-2.2 3-2.6 3zm-1.3-17.4c-1.2 0-2.4 0.4-3.3 1-0.8 0.5-1.9 1.7-1.2 3.6 0.6 1.7 1.3 2.1 2 2.6 1.3 0.8 2.6 1.7 3.6 8.2 0.1 0.6 0.2 0.7 0.3 0.7 0.3-0.1 1.7-2.3 2.8-6 1.1-3.9 1.1-7.2-0.1-8.4-1.1-1.2-2.6-1.7-4.1-1.7zm-33.1 287.3c-6.2 0-10.5-1.9-13.4-4-6.7-4.8-9-12.8-9-18.7 0-12.4 4.6-29.8 7.9-37.1 3.1-7-26.8-141.7-30.7-155.2-0.8-2.7-4.6-8.1-9.4-15-12.4-17.7-31.1-44.4-29.7-67.3 1.9-30.7 27.8-64.4 36.7-73.8 10.9-11.5 66.7-30.4 92.4-33 4.3-0.5 13.5-1 26.2 0.8 40.4 8.5 77.1 29.7 100.8 58.3 4.2 5.7 8.9 13.2 13.6 21.8 24.8 30.9 31.4 63.9 19.5 97.8-9.4 26.5-29.4 53.3-61.3 81.9-3.4 4.4-7.1 9.3-11.1 14.6-4 5.2-8.2 10.8-12.5 16.5-37.1 48.2-83 100.3-102.2 108.3-7.2 3-13 4.1-17.8 4.1zm53.7-403.2c-3.9 0-6.8 0.2-8.8 0.4-24.9 2.6-81.1 21.5-91.6 32.6-8.8 9.3-34.5 42.7-36.3 73-1.4 22.4 17.1 48.9 29.4 66.4 5.1 7.3 8.8 12.5 9.6 15.5 2.2 7.6 34.3 147.7 30.6 156-3.2 7.2-7.8 24.4-7.8 36.6 0 5.6 2.2 13.1 8.5 17.7 7.1 5 17.4 4.9 30.1-0.3 18.9-7.9 64.7-59.9 101.6-108 4.4-5.7 8.6-11.2 12.5-16.5 4-5.2 7.7-10.1 11.2-14.6 31.8-28.6 51.8-55.2 61-81.5 11.8-33.4 5.3-65.9-19.3-96.6-4.7-8.6-9.4-16-13.6-21.7-23.5-28.3-59.9-49.4-100-57.8-6.8-0.9-12.6-1.2-17.1-1.2zm-356.7 602.5c-1.9 0-3.6-0.9-4.7-2.5-2.2-3.3-1.8-9.7 3.2-15.5 5.1-6 24.2-11 29-6.5 0.7 0.7 1.6 2.2-0.4 4.7-3.6 4.4-14.6 15.2-23.6 19q-1.9 0.8-3.5 0.8zm21-24.9c-6.8 0-17.3 2.8-21.6 7.8-4.5 5.2-4.9 11-3.1 13.8 1.4 2.1 3.8 2.5 6.7 1.3 8.8-3.7 19.6-14.4 23.1-18.7 1.6-1.9 0.8-2.6 0.6-2.9-1-0.8-3.1-1.3-5.7-1.3zm-28.4 52.7c-3.9 0-7.2-1.8-9.5-5.4-4.5-7-4.3-18.8-1.5-26.1 12-31.5 48-51 85.7-46.3 4.1 1.4 6.6 3.4 7.9 6.2 1.3 2.8 1.3 6.5-0.2 10.9v0.1c-3.5 6.5-17.1 20.2-34 34.2l-0.6 0.6c-15 13.3-29.2 25.8-47.8 25.8zm63.5-77.2c-32.9 0-62.7 18.3-73.3 46.2-2.6 6.9-2.8 18.3 1.4 24.9 2 3.2 4.9 4.8 8.4 4.8 18.1 0 32.1-12.4 47-25.5l0.6-0.6c16.7-13.9 30.2-27.4 33.6-33.8 1.4-4 1.5-7.4 0.3-9.9-1.1-2.4-3.4-4.2-7-5.5q-5.5-0.6-11-0.6zm-63.4 107.9c-4.3 0-8.1-1.5-11.3-4.6-11.1-10.5-12.3-36-12.3-46.4 0-40.3 38.3-54.6 72-67.2 7-2.7 13.6-5.2 19.7-7.8 11.7-4.9 27.4-3.7 40.1 3.2 10.9 5.9 18.4 15.4 21 26.6v0.2c0 9.9-6.1 21.5-18.2 34.5-29.4 32.4-69.1 54.8-109 61.4q-1 0.1-2 0.1zm83.9-127.7c-5.4 0-10.7 1-15.3 2.9-6.1 2.7-12.8 5.2-19.8 7.8-33.3 12.5-71.1 26.6-71.1 66 0 8 0.8 35 11.8 45.5 3.5 3.2 7.6 4.6 12.4 4.1 39.6-6.5 79-28.8 108.2-61.1 11.8-12.6 17.9-23.9 17.9-33.5-2.6-10.8-9.8-19.9-20.4-25.7-7.3-3.9-15.7-6-23.7-6zm-75.5 153.2c-5 0-10-0.5-14.9-1.5-22.7-4.4-35.9-43.5-31.6-72.9 9.4-55.4 66.2-75.4 111.8-91.4 5.3-1.9 10.3-3.6 15.2-5.4 9.9-3.5 37.1-7.7 74.8 28.1 7.7 7.5 11.6 14.4 11.6 20.4 0 14.5-15.2 32.5-28 45.1l-2.7 2.3c-38.2 32.3-89 75.3-136.2 75.3zm94.6-172.1c-6.1 0-10.7 1.1-13.7 2.2-4.9 1.7-9.9 3.5-15.2 5.4-45.3 15.9-101.7 35.7-111 90.3-4.2 28.9 8.5 67.2 30.7 71.4 50.5 10.6 108-38 150-73.5l2.7-2.3c12.6-12.3 27.6-30 27.6-44.1 0-5.6-3.8-12.1-11.3-19.5-25.6-24.3-46.3-29.9-59.8-29.9zm-98.7 206.4q-4.4 0-8.7-0.8c-14.9-3.5-28.2-16.1-37.6-35.6-12-24.9-14.6-55-6.4-74.7 12.1-29.9 39.6-59.4 75.2-81 36.5-22.1 75.9-32 108.2-27.2 11.3 4.4 24.8 11.5 38.3 20.1 18.7 11.9 50.2 34.2 50.2 49.1 0 22.2-46.6 55.7-74.5 75.8-9.4 6.7-16.7 12-19.3 14.7-2.3 2.5-9.6 6.5-22.7 12.8-13.2 5.3-26.5 13.3-39.4 21-21.9 13.2-42.8 25.8-63.3 25.8zm114-219.2c-28.4 0-60.6 9.9-90.9 28.2-34.9 21.1-62.8 51.2-74.7 80.4-8 19.4-5.5 49 6.4 73.6 9.2 19.1 22.2 31.5 36.8 34.9 22.8 4.3 46.3-9.9 71.1-24.8 12.9-7.8 26.2-15.8 39.6-21.2 12.7-6 20-10.1 22.2-12.4 2.7-2.8 10.1-8.1 19.5-14.9 27.7-19.9 74-53.2 74-74.7 0-10.6-17.6-27.6-49.7-48-13.3-8.5-26.8-15.6-37.9-19.9q-7.9-1.2-16.4-1.2zm-107.6 248c-5.3 0-10.4-1-15.2-3.4-31.4-13.8-60.9-58.2-65.8-99.1-2.4-20.7 0.1-49.8 26.2-70.5 49.8-40.3 105.1-80.2 172.5-98.5 11.7-2.1 25.2 7.2 37.1 15.3q1.6 1.2 3.3 2.3c10.5 6.5 21.4 13.6 31.7 20.6 23.8 16.3 63.7 45.7 63.7 59.2 0 14.8-14.1 48.8-108.6 109.9l-1.2 0.8c-4.1 2.6-20.2 9.8-43.2 19.2-13.6 4.9-27.7 12.9-41.4 20.7-21.1 12-41.3 23.5-59.1 23.5zm121.1-270.5q-1.6 0-3.2 0.3c-67.1 18.2-122.3 58-171.9 98.3-25.7 20.3-28.2 48.9-25.7 69.3 4.7 40.4 33.9 84.4 65 98 20.3 10 46-4.6 73.3-20.1 13.6-7.8 27.8-15.8 41.5-20.7 22.8-9.4 38.9-16.5 43-19.1l1.2-0.8c93.9-60.8 108-94.3 108-108.8 0-9.4-23.1-30.6-63.2-58.1-10.2-7-21.2-14.1-31.7-20.6q-1.6-1.1-3.3-2.3c-10.6-7.2-22.6-15.4-33-15.4zm-138.4 309.4c-9.1-25.9-25.3-46-42.4-67.3-7.6-9.4-15.5-19.2-22.7-29.5-13.6-20-18.3-43.9-13.2-67.3 5.5-25.4 22.2-48.4 44.7-61.5 14.9-8.9 29.7-18.6 44-27.9 45.2-29.6 91.9-60.3 147.6-69.1h0.1 0.1c7.4 0.4 16.6 4.9 28.4 13.7 11.5 8.7 23.4 20.1 35 31 17 16.1 34.5 32.7 40.5 29.5 1.2-0.7 2-1.7 2.3-3.1 2-9.1-14.6-32.3-29.3-52.7-15.9-22.4-31.1-43.5-28.5-52.9 2.7-10.1 10.1-19.8 17.9-30.1 12.4-16.3 26.5-34.8 26.5-59.8 0-33.4-34.7-117.5-40.2-128.6-1.5-3.1-8-12.4-16.3-24.2-21.9-31.4-55.1-78.8-55.1-93.9 0-11.3 8.2-21.6 16.9-32.4 9.4-11.8 19.2-24 19.2-38.6 0-8.4-7.4-22.2-16.1-38.2-15.2-28.2-34.2-63.4-19.6-86.2 11.7-18.3 74.6-7.1 130.2 2.8 37 6.6 72 12.8 77.9 7.2 12.3-11.6 19.8-9.9 27.1-8.3l0.5 0.1q1.3 0.3 2.7 0.6c4 1 8.6 2.1 11.6 0.5 2.1-1.4 4.3-2.8 6.5-4.3 31.8-21.1 64.7-43 96.3-26.3 45.9 23.7 91.6 25.4 139.7 5 42.6-17.9 81.3-50.2 118.9-81.3l5-4.2c9.1-10.3 19.2-24.6 27.5-38.9 9-15.4 15.1-29.4 17.2-39.6 2.2-10.7 4.7-37.9 7.4-66.7 2.6-29.3 5.4-59.6 8.2-75.6l2.4 0.4c-2.7 16-5.5 46.2-8.2 75.4-2.6 28.9-5.1 56.2-7.4 67.1-2.1 10.4-8.4 24.8-17.4 40.4-8.5 14.5-18.7 28.8-28 39.4l-5.2 4.3c-55 45.7-115.5 96-186 96-23.9 0-48.9-5.8-75.2-19.4-30.4-16-62.7 5.5-93.9 26.2q-3.3 2.2-6.6 4.4c-3.9 2.1-8.9 0.9-13.4-0.2q-1.4-0.3-2.6-0.6l-0.5-0.1c-7-1.6-13.6-3.1-24.9 7.7-6.5 6.1-34.6 1.5-80-6.6-52.1-9.3-117-20.8-127.8-4-13.7 21.5 4.9 55.9 19.8 83.5 8.8 16.3 16.4 30.4 16.4 39.5 0 15.5-10.1 28.1-19.8 40.3-8.4 10.4-16.3 20.3-16.3 30.7 0 14.2 34.2 63.1 54.6 92.4 8.7 12.3 14.9 21.2 16.5 24.5 5.6 11.1 40.5 95.9 40.5 129.8 0 25.9-14.4 44.8-27 61.4-7.7 10.1-15 19.7-17.5 29.2-2.2 8.2 13.2 29.8 28.1 50.6 16.5 22.9 32 44.6 29.7 54.9q-0.7 3.3-3.6 4.8c-7.5 4.1-23.3-10.9-43.3-29.8-11.5-10.9-23.4-22.2-34.8-30.8-11.2-8.6-20-12.9-26.9-13.3-55 8.8-101.5 39.2-146.5 68.7-14.3 9.4-29.1 19.1-44 28-22 12.7-38.3 35.1-43.6 59.8-4.9 22.6-0.3 45.7 12.8 65.2 7.1 10.2 15 19.9 22.6 29.3 17.3 21.5 33.6 41.7 42.8 68.1zm-20.8 1c-21.7-23.5-40.7-50.6-53.4-76.2-16-32-22.3-61-18.8-86.1 3.9-27.6 19.8-49.8 47.3-65.9 15-8.9 29.9-18.3 44.4-27.5 49.7-31.4 101.1-63.8 158.7-76.7 11.8-2.7 18.3-4.6 21.1-6.1 16.6-8.9 61.5-79.8 61.5-108.5 0-24.7-13.5-56-26.6-86.3-4.4-10.1-8.5-19.7-12.1-28.8-11.2-28.9-37.4-67.1-56.6-94.9-14.1-20.5-24.3-35.3-24.3-39.9 0-6.4 7.4-17.8 14.5-28.7 4.8-7.4 9.8-15 12.2-20.8 2.3-5.3-6.4-30.7-16.5-60.1-16.1-46.9-36.1-105.3-25.6-122.1 11.9-19.2 57.6-19.3 106-19.5 48.4-0.1 98.4-0.2 108.9-21.4 7.9-15.9 0.9-28.3-6.4-41.5-7.7-13.8-16.4-29.5-9.2-51.4 15-45.2 26.8-63.6 40.8-63.6 5.7 0 14.1 1.4 22.3 2.8 10.5 1.8 21.4 3.6 26 2.3 12.5-4.6 22.6-3.7 28.6 2.6 23.3 27.6 39.1 59.4 54.3 90.2 17.3 34.9 35.2 70.9 63.9 100 26.2 27.6 69.6 28.6 98.8 2.2 13.2-12.1 28.1-23.6 42.5-34.7 40.4-31 82.1-63 94.3-116 3.3-14.6 7-31.7 11.2-51 10.2-47.5 19.6-93 20.4-97.3 0.1-0.4 0.2-1 0.8-0.9 0.3 0.1 0.5 0.1 0.4 0.9h0.1l-0.1 0.3c-0.2 1.1-0.6 3.3-1.6 7.9-1.1 5.3-2.6 12.8-4.5 21.9-2.7 13.2-8.2 39.4-14.3 67.5-4.1 19.3-7.9 36.4-11.2 51-12.3 53.4-54.2 85.6-94.8 116.8-14.4 11.1-29.2 22.5-42.4 34.6-29.7 26.8-73.8 25.9-100.4-2.2-28.9-29.3-46.8-65.4-64.2-100.4-15.2-30.7-31-62.5-54.1-89.9-5.6-5.9-15.3-6.7-27.3-2.2-5 1.3-15.5-0.4-26.6-2.3-8.1-1.4-16.5-2.8-22.1-2.8-13.4 0-24.9 18.2-39.6 62.7-7.1 21.4 1.1 36.1 9.1 50.3 7.5 13.5 14.6 26.3 6.4 42.8-10.8 21.9-61.3 22-110 22.2-45.9 0.1-93.4 0.2-105 18.8-10.1 16.3 9.8 74.3 25.8 121 10.5 30.8 18.9 55.2 16.4 61.1-2.4 5.8-7.4 13.5-12.3 21-7 10.7-14.2 21.9-14.2 27.9 0 4.2 10.6 19.6 24 39.1 19.2 27.9 45.5 66.1 56.8 95.2 3.6 9.1 7.7 18.7 12 28.8 13.2 30.4 26.7 61.8 26.7 86.8 0 29.5-44.6 100.3-62.1 109.7-3 1.6-9.6 3.5-21.4 6.2-57.5 12.8-108.7 45.2-158.3 76.5-14.5 9.2-29.5 18.7-44.5 27.5-27.1 15.9-42.8 37.8-46.7 65-4.9 34.9 11.4 95.6 71.8 161.2zm-23.9-1.1c-42.6-43.3-65.6-104.1-58.7-154.9 5-36.3 25-65.1 57.8-83.2 14.2-8.4 28.3-17 41.9-25.4 37.3-22.9 72.5-44.6 111.7-62.1 20.1-9.4 42.1-16.1 61.1-21.4 3.5-2.1 8.8-7.9 15.5-16.7 20.1-26.9 44.4-70.9 44.4-85.4 0-14.3-13.8-51.4-41-110.1-1.3-2.7-2.1-4.5-2.5-5.4-16.8-38.1-38.8-64.2-56.4-85.2-15.2-18.1-26.2-31.2-26.2-43.3 0-17.3 6-32.4 9.6-41.5 1.4-3.5 2.5-6.3 2.5-7.4 0-1.6-3.9-15.7-8-30.6-6.3-22.8-14.1-51.2-14.1-56.6 0-4.7-0.4-28.9-0.8-52.3-0.4-21.1-0.7-41.1-0.7-44.6 0-2 1.5-4.2 3.7-7.5 6.4-9.6 19.9-29.7 19.9-82.5 0-3.4 13.8-9.2 45.3-21.4 24.6-9.6 52.4-20.4 58.4-26.7 4.9-5.2 10.9-19.1 17.4-33.8 8.9-20.4 18.2-41.5 26.1-43.2 5.3-1 24.7 0.4 47.2 2.2 5.5 0.4 11.1 0.8 16.7 1.2 11.9 0.9 27 1.9 38.7 2 52.5-19.5 98.4 23.8 121.7 66.8 6 11.6 11.5 23.6 16.9 35.2 15.3 33.2 29.7 64.7 55.6 87.1 52.7 42.6 103.9-12.8 145-57.4 7.1-7.7 13.8-14.9 20.2-21.3 24.1-22.6 27.2-52.9 30.6-85 1.7-16.8 3.5-34.2 8.6-50.3 2.2-4.6 5.8-7.4 9.7-10.3 3.7-2.8 7.5-5.7 10-10.3 8-10.9 12.7-22.8 14.4-36.6l1.3 0.2c-1.8 14-6.6 26.1-14.7 37.1-2.6 4.8-6.5 7.8-10.3 10.7-3.7 2.8-7.2 5.4-9.2 9.7-5.1 15.9-6.8 33.2-8.6 49.9-1.6 15.5-3.3 31.5-7.5 46.2-4.8 16.4-12.5 29.4-23.5 39.7-6.3 6.3-13 13.6-20.1 21.2-30.9 33.5-67.5 73.1-106.4 73.1-13.2 0-26.7-4.6-40.3-15.6-26.1-22.6-40.6-54.2-56-87.6-5.3-11.6-10.8-23.5-16.8-35.1-23.1-42.6-68.5-85.5-120.3-66.1h-0.1-0.1c-11.7-0.1-27-1.1-38.9-2-5.6-0.4-11.2-0.8-16.7-1.2-21.4-1.7-41.7-3.2-46.9-2.2-7.2 1.5-16.8 23.3-25.2 42.5-6.5 14.8-12.6 28.8-17.7 34.1-6.2 6.5-32.9 16.9-58.7 27-19.9 7.7-44.6 17.3-44.6 20.2 0 53.2-13.6 73.5-20.1 83.3-2.1 3-3.5 5.1-3.5 6.7 0 3.5 0.4 23.5 0.7 44.6 0.4 23.4 0.8 47.6 0.8 52.3 0 5.2 7.8 33.5 14.1 56.3 5 18 8 29.2 8 30.9 0 1.4-1 4-2.5 7.9-3.6 9-9.5 24-9.5 41 0 11.6 10.8 24.5 25.8 42.4 17.7 21.1 39.7 47.3 56.6 85.5 0.4 0.9 1.3 2.8 2.5 5.4 10.2 22 41.2 88.8 41.2 110.7 0 16-26.9 62.5-44.7 86.2-4.8 6.3-11.4 14.4-15.9 17.1l-0.2 0.1c-18.9 5.3-41 12-61 21.3-39.1 17.5-74.3 39.1-111.6 62.1-13.6 8.3-27.7 17-41.9 25.4-32.5 17.9-52.3 46.3-57.2 82.2-6.8 50.4 16 110.7 58.3 153.8zm-42.6 0.4c-34.2-40.4-51.3-92.3-46.9-142.2 4-44.6 24.6-83.2 59.6-111.6 8.3-5 17.4-7.2 26.1-9.3 6.6-1.6 13.4-3.2 19.6-6.1 22.4-11 44.4-24.2 65.6-37 37.4-22.5 76.2-45.9 118.1-57.3 3-3.4 15.5-21.3 27.1-39.8 14.8-23.5 23-39.7 23-45.5 0-10.6-14-52.9-22.4-78.1-2.9-8.7-5.2-15.6-6.3-19.3-3-10.2-30.3-52-55-84.4-8.3-10.8-15.5-19.5-20.8-25.1-7-9-16.8-10.7-26.2-12.3-8.4-1.5-16.4-2.9-22.3-9.1-14.3-15-3.5-40 7.5-60.2 2-5.2 3.3-15.9 3.8-31.6 0.9-30-1.3-71.5-2.8-98.9-0.6-11.7-1.1-20.2-1.1-23.9 0-16.4 15.3-52.6 22.8-60.5 2.5-2.7 7.1-32.2 12.4-66.4 9.5-61.3 21.2-137.5 33-143 15.1-7.3 156-0.1 216.2 3l2.6 0.1c11.1 0.6 18 0.9 19.5 0.9 65.3-16 111.8 33.7 156.8 81.9 28 29.9 56.9 60.9 90.2 76 11.9 5.9 25.9 5.1 40.5-2.2 22-11 42.6-36.2 47.9-58.6 12.2-49.7 29.9-107.3 68.6-158.5l1 0.8c-38.6 51-56.2 108.5-68.4 158-5.4 22.8-26.3 48.4-48.6 59.5-14.9 7.5-29.3 8.2-41.5 2.2-33.5-15.2-62.5-46.3-90.6-76.3-44.7-47.9-91-97.4-155.8-81.5-1.6 0.1-8.5-0.3-19.7-0.9l-2.5-0.1c-55-2.8-200.9-10.2-215.7-3.2-11.1 5.4-23.4 84.4-32.3 142.1-6.3 41-10 64.3-12.7 67.1-7.2 7.6-22.4 43.8-22.4 59.6 0 3.7 0.4 12.6 1 23.8 1.5 27.5 3.7 68.9 2.8 99.1-0.5 15.8-1.8 26.6-3.9 32.1-10.8 19.8-21.4 44.3-7.7 58.6 5.6 6 13.4 7.3 21.6 8.8 9.7 1.6 19.6 3.4 26.9 12.7 5.3 5.6 12.5 14.3 20.9 25.2 22.7 29.7 51.8 73.3 55.2 84.8 1.1 3.6 3.4 10.5 6.3 19.3 8.9 26.9 22.4 67.7 22.4 78.5 0 7.8-12.6 29.4-23.2 46.2-12.2 19.5-24.6 37.1-27.4 40.2l-0.1 0.1-0.1 0.1c-41.8 11.3-80.6 34.6-118 57.2-21.3 12.8-43.2 26-65.7 37-6.3 2.9-13.2 4.6-19.8 6.2-8.6 2-17.6 4.2-25.8 9.1-34.6 28.1-55 66.3-58.9 110.6-4.4 49.6 12.6 101.1 46.6 141.3zm131-423.8q-1.2 0-1.9-0.5c-1.5-0.9-2.4-2.7-2.6-5-0.3-4.2 2-11.4 9.2-17.9 6.1-5.3 11.4-5.1 14.5-3.1 2.8 1.8 4 5.4 3.1 9.2-1.2 5.3-10.3 12.9-17.4 16q-2.9 1.3-4.9 1.3zm14.6-26.5c-2.5 0-5.7 1.1-9.1 4.1-6.9 6.2-9 12.9-8.7 16.8 0.1 1.9 0.8 3.3 1.9 4 1 0.6 3.1 0.3 5.8-0.9 6.6-2.9 15.5-10.3 16.6-15.1 0.8-3.3-0.2-6.3-2.6-7.8-1-0.7-2.3-1.1-3.9-1.1zm-33.3 48q-3 0-5.4-1.1c-4-1.7-6.8-5.4-8.2-10.7-2.9-11.4 7.7-32.1 16.2-42 9.1-10.6 27.9-15 33.7-14 6.3 0.9 17 16.3 16.8 26.3-0.1 4.4-22.9 26.8-38.1 36.3-5.6 3.4-10.7 5.2-15 5.2zm34.5-66.7c-6.8 0-23 4.5-31 13.8-8.3 9.7-18.7 29.8-15.9 40.8 1.3 4.9 3.9 8.3 7.5 9.8 4.9 2.1 11.5 0.7 19.2-4.1 15.3-9.4 37.5-31.5 37.6-35.1 0.2-9.3-10-24.1-15.8-25q-0.6-0.2-1.6-0.2zm-46.5 86.5c-3.5 0-7.2-1.1-10.9-3.7-8.9-5.6-13.9-13.7-14.8-24-1.9-20.7 13.7-47.5 29.3-62.3 9-8 27-20.6 46.2-15.5 14.5 4.4 25.4 22 25.1 40.9v0.1c-2.5 12.1-18.7 26.7-32.6 38.1-5.1 2.9-10.2 7.2-15.1 11.4-8.8 7.4-17.7 15-27.2 15zm40.7-105.4c-15.2 0-28.9 9.8-36.3 16.3-15.4 14.6-30.7 41-28.9 61.3 0.9 9.8 5.7 17.6 14.3 23 12.8 9 24.3-0.8 36.6-11.2 4.9-4.3 10.1-8.6 15.2-11.5 13.6-11.2 29.7-25.6 32.1-37.2 0.2-18.3-10.2-35.3-24.3-39.5-2.9-0.8-5.8-1.2-8.7-1.2zm-62.9 128.9c-5.5 0-11.1-2.5-16.2-7.4-10.7-10.3-16.9-28.5-14.3-42.4 11.1-50.7 37.3-81.3 58-93.1 16.7-9.5 34.5-10.7 52.8-3.6 11.9 4.7 25 23.7 26 54.3v0.1c-0.3 5.8-8 19.9-14.5 30.2-27.7 30.2-56.7 50.7-86.2 61q-2.8 0.9-5.6 0.9zm57.1-149.8c-9.9 0-19.6 2.7-29 8-20.5 11.7-46.4 42.1-57.4 92.3-2.5 13.2 3.7 31.3 14 41.2 4.5 4.3 11.8 8.9 20.5 6.2 29.3-10.3 58.1-30.7 85.7-60.6 8.2-13 13.9-24.9 14.1-29.5-0.6-21.7-9.5-46.9-25.1-53q-11.6-4.6-22.8-4.6zm-63.2 163.5c-3.8 0-7.6-0.4-11.5-1.4-19.2-5.4-31.1-16.3-35.4-32.3-10.2-37.8 24.1-93.6 49.7-121.9 18.3-23.7 51.1-33.4 81.5-24.3 25.6 8.3 32.6 39.3 38.8 66.6q0.6 2.7 1.2 5.3l0.1 0.1v0.1c-0.1 6.4-9.4 25.4-18.9 36-9.9 7.6-20 16.9-29.7 26-24.2 22.6-49.2 45.8-75.8 45.8zm61.3-182c-22.6 0-44.1 9.8-57.6 27.2-25.4 28.2-59.4 83.5-49.4 120.7 4.2 15.6 15.8 26.2 34.5 31.4 30.3 8 58.7-18.5 86.2-44.1 9.7-9.1 19.8-18.4 29.7-26 9.7-10.8 18.3-29.4 18.4-34.9q-0.6-2.6-1.2-5.3c-6.1-27-13-57.5-37.9-65.6-7.5-2.3-15.2-3.4-22.7-3.4zm-78.2 196.4q-4.5 0-9-0.5c-14.1-2-28.7-15.1-39-35-11.6-22.2-14.3-46.1-7.2-62.2 15.5-34.8 48.4-96 95.8-114 21.1-8 42.9-6.6 64.9 4.3 21.9 10.7 37.1 37.8 46.3 82.9h0.1v0.1c-0.1 5.7-7.7 28-21.8 43.3-10.8 8.1-21.6 17.7-32.1 27-30.1 26.6-61.2 54.1-98 54.1zm67.8-215.5q-13.6 0-26.8 5c-46.9 17.9-79.7 78.7-95 113.4-7 15.7-4.3 39.1 7.1 61 10 19.2 24.6 32.4 38 34.3 40.3 4.9 73.7-24.7 106.1-53.3 10.5-9.3 21.4-18.9 32.1-27 13.1-14.3 21.2-36.3 21.3-42.2-9.2-44.6-24.1-71.4-45.7-81.9-12.4-6.2-24.8-9.3-37.1-9.3zm-71.7 228.1q-10 0-19.7-2.2c-17.3-3.6-33.9-17.6-46.7-39.2-15.3-25.9-21.6-57.2-16-79.7 6.4-31.5 43.4-65.2 70.8-87.9 15.3-12.9 69-53.8 114.7-35 17.4 6.1 32.6 20.4 43.8 41.4 9.9 18.4 16.5 41.6 18.5 65.1 0 3.3-2.3 12.3-6.4 22.6l-0.1 0.2c-57 76.2-110.4 114.7-158.9 114.7zm77.7-247.6c-38.1 0-76.1 29.1-88.6 39.7-27.1 22.5-64 56-70.3 87.1-5.5 22.2 0.7 53.1 15.9 78.7 12.6 21.3 28.9 35 45.9 38.6 53.1 11.9 112.8-25.8 177.3-112 3.9-9.7 6.2-18.8 6.2-21.9-1.9-23.4-8.4-46.3-18.2-64.6-11.1-20.7-26.1-34.8-43.2-40.8-8.2-3.3-16.6-4.8-25-4.8zm-202.1 567.9c-26.5-63.4-27.7-149.6-3.1-209.8 15.2-37.2 39.6-63 70.4-74.6 6.4-2.5 13-5.1 19.9-7.7 90.5-34.9 214.3-82.6 216.2-177.6 1.3-49.3-24.1-100.8-60.5-122.5-19.8-11.8-51.9-20.1-92.1 7.1l-0.6 0.5-0.3-0.7c-11.4-25.7-24.9-64.9-24.9-105.3 0.9-22.7 6.1-45.3 11.2-67.2 6.2-26.9 12.6-54.8 11.4-83.6 1-11.8 2.4-24.7 4-37.3 3.7-28.2 7.9-49 11.1-55.6 2.6-5.4 7.9-12.2 14-20.2 10.5-13.7 23.6-30.7 27.6-46.6 1-3.9 2.4-10.2 4.3-18.2 10.3-45.3 31.8-139.6 53-162 23.1-24.3 103.8-23.9 157.2-23.6 4.8 0 9.4 0 13.6 0 26.1 0 58.2-7.3 80-12.7 6.8-1.7 13.2-3.4 19.1-5 5.2-1.3 10.1-2.6 14.4-3.7 54.3-0.5 96.6 34.9 137.6 69.2 20.8 17.5 42.4 35.5 64.9 48.1 14.4 8.2 29.1 9.3 43.9 3.5 23.6-9.3 57.7-43.7 82.4-112.4l1.1 0.5c-4.9 13.7-15.7 40.6-32.6 66-16.2 24.5-33.2 40.3-50.5 47.1-15.1 6-30.2 4.8-44.9-3.5-22.6-12.7-44.2-30.8-65.1-48.3-40.8-34.1-83-69.4-136.7-68.9-4.1 1.1-9 2.3-14.2 3.7-5.9 1.6-12.3 3.2-19.1 4.9-21.9 5.5-54.1 12.8-80.3 12.8-4.2 0-8.8 0-13.6 0-50-0.3-133.6-0.7-156.3 23.2-21 22.2-42.4 116.2-52.7 161.4-1.8 8-3.3 14.3-4.3 18.2-4.1 16.2-17.3 33.4-27.8 47.1-6.1 7.9-11.3 14.7-13.9 20-3.2 6.5-7.3 27.1-10.9 55.2-1.7 12.6-3.1 25.4-4.1 37.1 1.3 28.9-5.2 56.9-11.4 83.9-5 21.8-10.3 44.4-11.2 66.9 0 39.8 13.3 78.4 24.6 104 40.4-27.1 72.7-18.6 92.7-6.7 36.8 21.8 62.5 73.8 61.2 123.6-2 95.9-126.3 143.8-217.1 178.8-6.8 2.7-13.5 5.2-19.9 7.8-30.5 11.4-54.6 36.9-69.7 73.8-24.5 59.9-23.2 145.7 3.1 208.8zm27.9 1.4c-31.7-62.2-39.3-141.7-18.8-197.6 12.7-34.7 35.7-59.2 66.5-70.7 44.4-17.3 86.1-42.5 126.4-66.9 31-18.7 63-38.1 95.6-53.4 8-3.3 14.8-14.2 19.8-31.4 6.6-16.4 11.3-33.6 11.3-41.7 0-11.1-5.3-38.7-19.9-69.2-4.9-10.3-10.5-20-16.5-28.6-8.6-9.8-15.2-21.6-21.6-33.1-9.8-17.6-19.9-35.8-37.5-46.4-8.6-5-19.7-2.9-30.4-0.8-12.4 2.4-24.1 4.7-32-3.6-22.7-27.2-14.8-63.5-7.1-98.7 2.8-13.2 5.8-26.9 7-39.7 1.5-11.7 0.7-24.6-0.1-37-0.3-3.7-0.5-7.4-0.7-10.9-0.4-10.8-0.1-22.6 0.9-35.2 2.9-34.4 10.8-67.2 15.5-77.6 2.5-5.7 7.1-12.2 12.1-19.1 6.7-9.4 13.7-19.2 16-27.9 0.8-2.9 2.4-10.9 4.6-22 10.2-50.5 31.3-155.4 47.2-166.8 13.9-9.8 114.8-10.8 181.5-11.5 26.4-0.2 47.2-0.4 51.7-1.1 6.5-1.1 15.6-4 25.1-7.1q2.6-0.9 5.3-1.7c19-9.2 35.7-7.2 52.7 6.3 23 15.7 44.6 37.5 65.4 58.6 49.3 50 96 97.3 158.1 63.8 32-16.1 48.1-60.9 63.7-104.2 7.6-21.4 14.9-41.5 23.9-58.4l1.1 0.7c-9 16.8-16.2 36.9-23.9 58.1-15.6 43.6-31.8 88.6-64.3 105-62.9 33.9-109.8-13.7-159.5-64.1-20.8-21-42.2-42.8-65.2-58.5-16.6-13.1-33-15-51.6-6.1q-2.7 0.9-5.3 1.7c-9.6 3.1-18.7 6.1-25.3 7.2-4.6 0.7-24.4 0.9-51.9 1.2-62.5 0.6-167.2 1.6-180.8 11.2-15.5 11.1-37.3 119.6-46.7 166-2.2 11.1-3.8 19.2-4.6 22.1-2.3 8.9-9.4 18.8-16.2 28.3-4.9 6.8-9.5 13.3-12 18.8-4.6 10.4-12.5 43-15.3 77.2-1.1 12.5-1.4 24.3-0.9 35 0.2 3.6 0.4 7.2 0.6 10.9 0.9 12.5 1.7 25.5 0.1 37.3-1.2 12.8-4.1 26.5-7 39.8-7.6 34.9-15.4 70.9 6.8 97.5 7.5 7.8 18.9 5.6 30.9 3.2 10.9-2.1 22.2-4.3 31.2 1 17.9 10.7 28.1 29.1 38 46.8 6.3 11.4 12.9 23.2 21.5 33 6.1 8.7 11.7 18.4 16.6 28.8 14.7 30.7 20 58.6 20 69.8 0 8.3-4.7 25.6-11.3 42.2-5.2 17.7-12.1 28.6-20.5 32.1-32.5 15.3-64.5 34.6-95.5 53.4-40.3 24.4-82 49.6-126.6 66.9-30.4 11.4-53.2 35.6-65.7 69.9-20.4 55.7-12.9 134.7 18.7 196.6zm25.5 0.4c-27.4-50.6-49.6-126.8-30.1-188.7 10.5-33 31.5-57 62.6-71.3 33.2-14.2 64.9-33.1 95.4-51.3 30.7-18.3 62.3-37.2 95.6-51.5 4.3-1.8 9-2.9 13.5-3.9 6.7-1.5 13.5-3.1 19.6-7 6.9-5.4 12.3-13.8 17.5-22q1.4-2.2 2.7-4.3c8.9-14.5 16-31.7 19-45.8 4.3-20-2.8-50.7-21-91.2-3.5-7.8-17.3-31.7-33.5-56.6-8.8-13.6-17-25.3-24.1-34.8-10.2-20-27.7-25.3-46.3-30.9-11.8-3.6-24.1-7.3-34.7-15.1-8.3-6.6-6.7-21.3-4.4-33.5 5.1-26.9 10.6-62.4 7.7-97.6-0.4-6.9-0.9-13.8-1.3-20.4-0.3-4.2-0.6-8.3-0.8-12.1-0.6-8.5-1.1-17.9-1.1-23.6 0-15.3 20.1-54.7 33.5-80.7 5.3-10.3 9.5-18.5 10.9-22.3 1.5-3.7 4.5-21.7 8.3-44.4 10.4-61.6 26.1-154.7 40.9-162.5 20.2-10.8 188.6-2.5 219.3 0.7 15.3 1.6 23.8-0.6 30.1-3.1 55-25.7 93.3 17.4 130.4 59.1 17.2 19.5 35.1 39.6 54.3 52.1 54.4 32.3 91.9 26.2 109.4 19.7 15-5.8 17.2-20.4 19.5-36 1.1-7.6 2.3-15.5 5-22.7 16.9-39.4 38.2-78.1 67.2-121.9l1 0.8c-28.9 43.7-50.2 82.3-67 121.6-2.7 7-3.8 14.9-5 22.4-2.3 16-4.5 31-20.3 37-41.3 15.4-86.9-5.8-110.5-19.7-19.3-12.7-37.2-32.9-54.6-52.4-36.7-41.3-74.7-84.1-128.9-58.7-6.5 2.4-15.2 4.7-30.7 3.1-29.6-3-199.1-11.3-218.7-0.9-14.2 7.6-30.4 104-40.1 161.6-4 23.7-6.9 40.8-8.4 44.7-1.5 3.9-5.7 12.1-11 22.4-13.3 26-33.4 65.1-33.4 80.1 0 5.6 0.6 15 1.1 23.5 0.3 3.8 0.5 7.9 0.8 12.1 0.5 6.6 0.9 13.5 1.4 20.4 2.9 35.4-2.7 70.9-7.8 98-2.2 11.7-3.8 26 3.9 32.1 10.5 7.6 22.6 11.3 34.4 14.9 18.8 5.7 36.6 11.1 46.9 31.5 7.1 9.4 15.3 21.1 24.1 34.7 16.2 25 30.1 49 33.6 56.9 18.4 40.7 25.4 71.7 21.1 92-3 14.3-10.2 31.5-19.1 46.2q-1.4 2.1-2.8 4.3c-5 7.9-10.7 16.8-17.8 22.4-6.3 4-13.3 5.6-20 7.2-4.7 1.1-9.2 2.1-13.4 3.8-33.1 14.2-64.8 33.1-95.3 51.4-30.7 18.3-62.3 37.2-95.6 51.4-30.7 14.1-51.6 37.8-61.9 70.5-19.4 61.5 2.7 137.3 29.9 187.7zm416.7-275.2c-7.2 0-14.9-3.8-23.1-11.2-24.3-22.1-43.9-68.9-43.9-92.9 0-22.5 12-37.9 21.6-50.3 4.8-6.2 9-11.5 10.4-16.3 2-7.1-4.6-37.5-11.5-69.7-7.1-32.8-14.5-66.7-14.5-83.2 0-21.3-19.6-42.4-35.3-59.4-8.6-9.2-16-17.2-18.9-23.7-7.7-16.9 22.2-64.2 38.3-89.7 1.6-2.6 3.1-4.9 4.4-7 13.8-22.1 85.6-46.2 118.7-52.3 8.8-1.7 19.1-0.7 30.5 3 15 6.1 28.4 15.7 41.3 25 18.1 13.1 35.2 25.4 54.4 26.6 59.6 3.9 104.1-35.4 151.3-77 30.3-26.9 61.7-54.6 97.4-69.5 14.4-5.7 30.1-2.4 49.2 10.4 10.3 6.4 20.6 13.7 29.7 20.1l0.7 0.4c28.3 20 52.8 37.2 64.9 24.5 13.3-14.1 0.3-37.1-14.8-63.7-12.1-21.5-25.8-45.8-25.8-67.9 0-26.6 13.9-50.3 26.2-71.3 10.2-17.3 19.7-33.6 19.7-48.6 0-20.1-9-46-17-68.9-5.2-14.9-10.1-28.9-11.5-38.7l1.2-0.2c1.4 9.7 6.3 23.6 11.5 38.4 8 23 17.1 49.1 17.1 69.4 0 15.3-9.7 31.8-19.9 49.3-12.2 20.8-26.1 44.4-26.1 70.6 0 21.8 13.7 45.9 25.7 67.2 15.3 27.1 28.6 50.5 14.5 65.3-12.8 13.5-37.6-4-66.4-24.3l-0.7-0.5c-9-6.3-19.3-13.6-29.6-20-18.8-12.5-34.1-15.8-48.2-10.2-35.4 14.7-66.8 42.4-97 69.2-45.3 39.9-92.1 81.3-152.2 77.3-19.6-1.2-36.8-13.7-55-26.8-12.9-9.3-26.2-18.9-41-24.9-11.2-3.6-21.3-4.6-29.9-2.9-32.9 6.1-104.3 29.9-117.9 51.7-1.2 2.1-2.7 4.4-4.4 7.1-14.8 23.4-45.6 72.1-38.2 88.4 2.8 6.2 10.2 14.1 18.7 23.3 15.9 17.1 35.7 38.5 35.7 60.3 0 16.3 7.3 50.2 14.4 82.9 7.3 33.8 13.6 63 11.5 70.4-1.5 5-5.7 10.4-10.6 16.7-9.5 12.3-21.4 27.5-21.4 49.5 0 23.7 19.4 70 43.5 91.9 9.1 8.3 17.6 11.8 25.3 10.6 26.9-4.2 119.7-74.2 164.7-120.2 9.1-9.4 16.9-18.2 23-26.2 21.4-42.6 54.8-70 90.2-99 12-9.9 24.4-20 36.3-30.8 11.6-12.3 10.8-29.1-2.1-42.8l-0.8-0.8 1-0.3c47.6-13.7 65.2-53.3 83.8-95.3 8.2-18.4 16.6-37.5 27.9-55.3 9.2-14.5 24-17.4 38.3-20.1 5.3-1.1 10.9-2.1 16-3.8q8.3-1 16.9-1.8c5.7-0.6 11.6-1.2 17.4-1.9 28.7-3.2 68.4-8.7 82.7-19 24.8-17.9 37.3-29.3 37.3-42.1 0-3.8-1.3-5.4-2.8-7.2-3.3-3.8-7-8.2 0.1-34 3.2-11.8 8.1-27.7 13.4-44.5 11.6-37.4 24.8-79.8 24.8-95.4 0-8.2-1-15.2-1.9-21.4-1.6-10.8-3-20.2 2-31.3 8.1-18.3 68.5-144.2 76.6-152.7l0.9 0.9c-8 8.5-68.3 134.1-76.4 152.3-4.8 10.8-3.5 19.5-1.9 30.6 0.9 6.2 2 13.3 2 21.6 0 15.8-13.3 58.3-25 95.8-5.2 16.8-10.1 32.6-13.3 44.5-6.9 25.1-3.5 29.1-0.4 32.7 1.6 1.8 3.2 3.7 3.2 8.1 0 13.4-12.8 25-37.9 43.1-11 8-37.5 14.2-83.3 19.3-5.8 0.7-11.7 1.3-17.4 1.9-5.7 0.6-11.3 1.1-16.7 1.8-5.1 1.6-10.7 2.7-16.1 3.8-14 2.7-28.6 5.5-37.4 19.5-11.3 17.8-19.7 36.8-27.8 55.1-18.7 42-36.3 81.7-83.6 95.8 5.9 6.5 9.3 13.9 9.8 21.5 0.6 8.2-2.4 15.9-8.5 22.4-11.9 10.8-24.3 20.9-36.3 30.8-35.3 28.9-68.6 56.2-90 98.8-6.2 8.1-14 16.9-23.2 26.3-54.1 55.5-141.8 117-165.3 120.6q-1.6 0.3-3.2 0.3zm3.1-35.3c-6.8 0-15.8-9.8-22.2-18-16-20.6-34.6-56.4-32.5-67.1 1.4-7.7 8.5-19.5 15.4-30.8 6.1-10.1 12.4-20.4 12.4-24.8 0-10.8-20.7-147.8-27.9-161.6-2.2-4.4-7.1-11.4-12.8-19.6-13.2-19-29.6-42.5-29.6-55.6 0-18.5 25.3-60.1 46.3-82.2 16-16.9 47.4-37.1 76.3-42.8 10.4-2.1 19.8-2.2 28-0.2 22.3 6.7 44.8 19.5 66.6 31.9 55.8 31.7 108.4 61.7 162.5 4.8 6-6.7 12-13.7 18.4-21.1 41.9-48.4 89.4-103.4 154.3-83.6 23.5 9.3 35.2 21.6 31.6 33-2.9 8.9-14.1 10.3-28.4 11.3-47.6 2.8-78.5 39-108.4 74.1-7.9 9.3-16 18.8-24.3 27.5-17.3 19.6-39.2 19.9-62.4 20.1-13.2 0.1-26.9 0.3-39.8 4.3h-0.3q-1.7 0-2.7 1.5c-2.1 3-1.7 9.7-0.3 14.3 2.8 5.9 6.1 12.2 9.2 18.2 20.5 39.3 41.6 80-7.6 114.5-20.3 15.6-36.6 33.3-56.3 61.2q-4.8 6.7-9.6 13.5c-3.6 5.1-7.2 10.2-10.8 15.2-38.3 52.7-113 125.2-141.2 125.2q-2.4 0-4.3-0.7c-12.7-4.9-24.5-17.6-31-33.2-4.4-10.8-5.3-21.1-2.4-28.3 7.4-18.3 14.2-42.3 7.4-57.9 1.3 8.9 2 14.9 2 16.2 0 5.1-6 14.9-12.8 26.2-6.4 10.6-13.7 22.7-15.1 29.9-1.7 9.1 15 43.1 32 64.9 8.6 11 15.8 17.1 20.3 17.1 13.3 0 96.5-62.2 148-117.5 10.6-11.3 19.7-22.1 27-32.1 12.7-19.5 29.3-36.4 45.4-52.8 22.4-22.8 45.6-46.4 57.6-76.9 4.4-11.5-2.4-22.8-9.6-34.7-6-10.1-12.3-20.5-13.3-32.5l-0.1-1.9 1.7 0.6c65.5 19.7 93.2-24.7 122.5-71.8 9.3-14.8 18.8-30.1 29.8-43.8 10.5-17.7 29.2-24.3 47.9-28.9 14.1-3.8 29.9-5.9 45.2-7.9l1.3-0.2c46.8-6.2 93-12.9 99.7-19.9 9.1-9.6 14.6-36.4 21.7-70.3 3.4-16.3 7.2-34.8 12-53.8 13.5-53.3 13.3-81.5 13.2-100.1q0-2.3 0-4.4c0-18.5 78.9-159.3 82.3-165.3l2.1 1.3c-28.3 50.5-81.9 149.8-81.9 164q0 2.1 0 4.3c0.1 18.8 0.3 47.2-13.3 100.9-4.7 18.9-8.6 37.4-12 53.7-7.1 34.3-12.8 61.4-22.4 71.5-7.2 7.7-51.9 14.2-101.1 20.7l-1.3 0.2c-15.2 2-31 4.1-44.9 7.9-18.2 4.4-36.4 10.8-46.5 27.9-11 13.7-20.5 28.9-29.7 43.7-29.6 47.4-57.5 92.2-123.5 73.3 1.4 10.6 7.1 20.1 12.7 29.4 7.6 12.5 14.7 24.3 9.9 37.1-12.3 31-35.7 54.8-58.3 77.8-15.9 16.3-32.5 33.1-45.1 52.4-7.4 10.1-16.6 21.1-27.2 32.5-50.1 53.6-134.6 118.2-149.8 118.2zm-27.3-163.5c11.9 16 4.3 44.4-4.2 65.5-2.6 6.6-1.8 16.1 2.4 26.3 6.1 14.7 17.7 27.2 29.5 31.7 20.9 8.1 99.4-63.9 142.7-123.6 3.6-5 7.2-10.1 10.8-15.2 3.2-4.5 6.4-9 9.6-13.5 19.9-28.1 36.3-46 56.9-61.7 47.3-33.3 26.7-72.8 6.8-111.1-3.1-6.1-6.4-12.4-9.3-18.5-1.7-5.4-2.1-13 0.5-16.8 1.2-1.7 2.7-2.5 4.6-2.6 13.2-4.1 27-4.2 40.3-4.3 22.6-0.3 44-0.5 60.6-19.3 8.3-8.7 16.4-18.2 24.2-27.4 30.2-35.5 61.5-72.2 110.2-75.1 15.6-1 23.9-2.8 26.1-9.4 3.2-9.9-8-21-30-29.7-63.3-19.3-110.2 35-151.6 82.9-6.4 7.4-12.5 14.4-18.6 21.1-55.3 58.3-111.3 26.5-165.4-4.3-21.7-12.3-44.1-25.1-66-31.7-7.8-1.8-16.9-1.8-26.9 0.2-28.4 5.7-59.3 25.5-75.1 42.2-20.6 21.7-45.5 62.4-45.5 80.3 0 12.2 16.8 36.4 29.1 54 5.7 8.3 10.7 15.4 13 20 6.1 11.7 19.5 97.8 25.3 140zm346.5-296.9c-0.6 0-1-0.7-1.4-1.3-2.4-4.7 3.6-17 16.9-34.7 10.3-13.8 26-24.2 32.1-21.4 1.4 0.7 2.9 2.3 2.3 6.3-2.1 14.7-9.6 17.3-18.2 20.4-5.4 2-11.6 4.2-17.1 9.8-8.1 8.3-11.1 15-12.6 18.2-0.8 1.9-1.2 2.7-1.9 2.7q-0.1 0-0.1 0zm45.2-56.5c-6.1 0-19.3 8.7-28.7 21.3-12.6 16.8-18.9 29.2-16.8 33.3q0.2 0.3 0.3 0.5c0.3-0.4 0.6-1.1 0.9-1.8 1.5-3.3 4.6-10.1 12.9-18.6 5.7-5.9 12-8.1 17.5-10.1 8.6-3.1 15.4-5.5 17.3-19.4q0.6-3.9-1.5-4.9-0.8-0.3-1.9-0.3zm-357.5 587.7q-0.7 0-1.3 0c-5-0.7-24.5-7.2-62.4-62.3-15.7-22.9-31-49.9-29.7-57.1 2.4-13.4 32.1-82.6 36.4-87.1 3.2-4.4-20.1-123.2-29.8-156.6-3.9-13.3-16.9-29.3-29.4-44.8-13-15.9-25.2-30.9-25.2-40.8 0-19.1 40.4-94.3 54.8-109.4 10.7-11.4 61.2-35.3 98.2-46.6 13.4-4.1 23.8-6.2 30.8-6.2q0 0 0 0c16.3 0 30.3 8.6 43.7 16.9 14.1 8.7 27.3 17 43 15.9 51.6-5.6 100.9-18.4 146.3-38.3 47.4-20.6 90.9-48.9 129.3-84.1 5.7-4.8 12.6-7 19.9-9.3 6-1.9 12.1-3.8 17.9-7.4 11.9-4.1 20.2-7.3 24.9-10.7 19.6-14.3 73.4-140.8 73.4-165.1 0-19-6.8-40.4-13.9-63.1-2.4-7.6-4.9-15.5-7.3-23.6l1.2-0.3c2.4 8 4.8 15.9 7.2 23.5 7.2 22.8 14 44.3 14 63.5 0 25.3-53.3 151.2-73.9 166.2-4.8 3.5-13.2 6.7-25.1 10.8-5.8 3.6-12 5.6-18.1 7.5-7.1 2.2-13.9 4.4-19.4 9.1-38.5 35.2-82.1 63.6-129.6 84.3-45.6 19.8-94.9 32.7-146.7 38.3-16 1.1-29.5-7.2-43.7-16-13.3-8.3-27.1-16.8-43.1-16.8q0 0 0 0c-6.9 0-17.2 2.1-30.4 6.1-36.2 11.1-87.3 35.3-97.8 46.3-13.8 14.6-54.3 90.2-54.3 108.5 0 9.4 12 24.2 24.8 40 12.7 15.6 25.8 31.7 29.7 45.3 6.6 22.7 34.1 153 29.5 157.8-4.3 4.5-33.6 73.1-36 86.4-1.1 5.9 11.8 30.5 29.4 56.1 19.6 28.5 46.1 59.7 61.6 61.8q0.5 0 1.1 0c22.5 0 111.8-77 182.5-144 6-5.7 11.7-11.1 17-16.2 4.7-4.5 9.1-8.7 13.2-12.5 105.6-75.8 166.8-192.5 208.4-285.6 10.7-22.6 35.1-31.6 56.7-39.5 8-2.6 16.8-4.8 26-7.3l5.5-1.4c33-8.6 91.4-25.6 111-41.9 26.3-21.9 32.5-39.5 24.5-69.8-5.4-20.7 8.6-67.2 18.8-101.2 5.1-16.9 9.5-31.4 10.3-38.7 1.1-10.2-1-20.4-3.1-30.3-2.4-11.3-4.6-22-1.2-30.5 6.1-15.6 79.2-155.8 79.9-157.2l1.1 0.6c-0.8 1.5-73.7 141.6-79.8 157.1-3.3 8.2-1.1 18.6 1.2 29.7 2.1 10 4.3 20.4 3.1 30.8-0.8 7.4-5.2 22-10.3 38.9-10.2 33.8-24.1 80.1-18.8 100.5 8.1 30.8 1.8 48.8-25 71.1-18.8 15.7-70.9 31.6-111.4 42.2l-5.5 1.4c-9.2 2.4-18 4.7-26 7.3-22.3 8.2-45.4 16.7-55.8 38.7-41.7 93.4-103.1 210.2-208.9 286.1-4 3.8-8.4 8-13.1 12.5-5.3 5.1-11 10.5-17 16.2-25.7 24.3-153.8 144.3-183.3 144.3zm-118.7-535.8q-0.3 0-0.6 0c-10.5-1.5-30.9-42.7-36.3-64.8q-0.6-2.5-1.2-4.8c-2.5-9.9-4.5-17.7-0.4-22.2 5.3-5.9 21.1-5 54.5 3.1 51 12.3 91.3 0.9 117.9-6.7l3.1-0.8c8.6-2.5 16.7-4.8 24-6.2 9.1-2.8 18.3-0.4 27.2 1.9 9.2 2.4 17.9 4.6 26.2 1.3 53.7-20.9 110.2-24.5 172.6-10.9 28 4.9 53.5-12.7 70-28.3 32-29.6 65.6-52.9 106.2-78.8 9.8-10.7 20.9-26.1 29.7-41.2 11.9-20.5 20.1-41 23.5-59.2 7.7-40.1 8.9-99.7 4.9-126.3l1.2-0.2c4 26.7 2.8 86.6-4.8 126.8-3.5 18.3-11.7 38.9-23.8 59.6-8.8 15.2-20 30.7-29.9 41.5l-0.1 0.1c-40.5 25.9-74.1 49.2-106.1 78.7-16.7 15.8-42.5 33.6-71.1 28.6-62.1-13.6-118.4-10-171.9 10.9-8.6 3.4-17.5 1.1-26.9-1.3-8.7-2.3-17.8-4.6-26.6-1.9-7.3 1.4-15.4 3.7-24 6.1l-3 0.9c-26.8 7.6-67.3 19-118.6 6.6-32.4-7.8-48.4-8.8-53.3-3.4-3.6 3.9-1.7 11.5 0.7 21q0.6 2.3 1.2 4.8c5.7 23.5 26 62.5 35.3 63.8q2 0.3 3.2-2c3.3-6.1-0.4-17.8-3.9-29.1-4.4-13.9-8.6-27.1-0.7-31.2 8.5-4.5 26.6-0.8 44 2.7 11.1 2.3 21.7 4.4 29.5 4.4 9.7 0 27.2-8.8 45.9-18.6l4.1-2.1c17.1-9 33.3-17.5 43.1-19.1h0.2l0.2 0.1c37.8 20.2 78 11.8 116.9 3.7 22.9-4.8 46.5-9.7 69.5-8.9 40.2 0 78.7-2.3 107.5-30.4 7.1-5.8 14.3-11.9 21.2-17.7 27.4-23 55.8-46.9 89.1-59.5 7.2-4.5 17.6-17.1 29.1-35.3 10.5-16.6 20.8-36.2 27.6-52.5 13.6-32.7 17.4-75.2 12.2-92.9-5.1-17.6-9.8-56.6-9.8-57l1.2-0.1c0.1 0.4 4.7 39.3 9.8 56.7 5.2 18 1.5 60.9-12.2 93.8-6.9 16.4-17.2 36.1-27.7 52.7-11.6 18.4-22.2 31.1-29.6 35.7-33.3 12.7-61.6 36.5-88.9 59.4-6.9 5.9-14.1 11.9-21.2 17.7-29.1 28.4-67.8 30.7-108.3 30.7-22.9-0.8-46.4 4.1-69.2 8.9-39.1 8.1-79.5 16.5-117.6-3.7-9.7 1.5-25.6 10-42.6 18.9l-4 2.1c-18.8 9.9-36.6 18.7-46.5 18.7-7.9 0-18.5-2.1-29.8-4.4-17.2-3.5-35-7.1-43.2-2.8-6.9 3.6-2.9 16.2 1.3 29.6 3.7 11.6 7.4 23.6 3.9 30.2-1.2 2.1-2.7 2.6-3.9 2.6zm715.9-129q-1.2 0-2.7-1.5c-6.6-6.3-18.8-33.2-28.1-57-8.6-22.3-17.9-50.7-15.8-57.4 3.8-11.9 17.2-35.7 24.4-48.6l2.3-4.1c5.9-10.7 9.4-27.1 3.6-39.8-5.7-12.6-37.8-110-38.1-111l1.2-0.4c0.3 1 32.4 98.3 38 110.8 6 13.1 2.5 30.1-3.6 41l-2.4 4.2c-7.1 12.8-20.5 36.6-24.2 48.3-3.5 11.2 31 101 43.5 113 1 0.9 1.7 1.3 2.1 1.1 7.6-3.5 34.6-120.6 34.6-133v-24.8c0-11 55.5-121.7 72.4-144.5l1 0.8c-16.2 21.8-72.2 133.2-72.2 143.7v24.8c0 5.9-6.7 38.5-14.3 69.8-5.7 23.1-15.9 62.1-21 64.4q-0.3 0.2-0.7 0.2zm11.8-104.7q-2.3 0-5.1-2.9c-7.1-7.4-15.1-28.4-12.1-35.9 1-2.5 2.2-5.2 3.5-8.1 3.4-7.1 7.1-15.2 7.1-22.6 0-5.9-14.5-51.5-26.1-88.2-10.4-32.7-16.7-52.9-16.7-55.3h1.2c0 2.3 8.1 27.8 16.7 54.9 12.3 38.7 26.2 82.5 26.2 88.6 0 7.7-3.9 15.9-7.2 23.2-1.4 2.8-2.6 5.5-3.6 8-2.7 7 5.1 27.4 11.9 34.5 1.4 1.5 3.5 3.1 5.1 2.3 5-2.2 8.5-29.6 10.8-47.7 1.1-8.3 2-15.4 2.8-19.2 1.8-7.6 24.1-49.2 43.8-85.9 12.7-23.7 23.7-44.1 26-49.7l1.2 0.5c-2.4 5.7-13.4 26.1-26.1 49.8-18.7 34.8-41.9 78.2-43.6 85.6-0.9 3.7-1.8 10.8-2.8 19.1-3.3 25.3-6.4 46.4-11.6 48.7q-0.7 0.3-1.4 0.3zm5.9-74.3c-9.7 0-38.2-130-41.4-144.8l1.2-0.3c12.1 55.6 33.7 143.8 40.2 143.8 6.7 0 44.7-82.3 68.6-137.7l1.1 0.5c-6.1 14.2-60 138.5-69.7 138.5zm6-35.5c-9.3 0-30.7-94.2-33.1-105l1.2-0.3c17.1 76.3 28.4 104 31.9 104 6.4 0 33.1-62.2 49.4-104.1l1.2 0.5c-4.2 10.8-41.3 104.9-50.6 104.9zm3.3-33.1c-13.4 0-23-69-23.4-71.9l1.3-0.2c2.6 19.7 11.8 70.8 22.1 70.8 9.9 0 25.1-43.4 31.8-66.3l1.2 0.3c-0.8 2.8-19.7 67.3-33 67.3zm3.6-33.3q-0.5 0-0.9-0.2c-7.7-2.6-11.6-35.2-11.8-36.6l1.3-0.1c1 9.2 5.1 33.5 10.8 35.5 4.9 1.7 14-19.3 18.5-33l1.2 0.5c-1.2 3.6-11.5 33.9-19.1 33.9zm-933.5 1177.1l-0.8-2.5c18.6-6.5 38.7-12.9 58.2-19 8.5-2.6 16.9-5.3 25.2-8 13.7-3.8 27.7-7.7 40.6-11.5 30.1-8.6 48.6-14.2 55.1-16.6 13.1-4.9 42.1-39 65.4-66.4 15.6-18.5 29.1-34.3 35.4-38.8 8.4-5.8 17.9-2.2 26.3 1 9 3.5 14.7 5.3 18-0.6 3.6-6.2 1.3-12.3-1.3-19.4-3-7.8-6.3-16.7-2.2-27.7 4.8-12.9 37.9-29.6 69.9-45.8 21-10.6 40.9-20.7 52.6-29.3 12.2-9.2 35.5-31.5 69-66.4 9.9-10.3 18.1-18.5 25.3-25.2 14.3-10.4 30.2-19.9 45.6-29.2 38-22.7 77.3-46.2 96.3-84.7 7.9-17.8 14.9-37.2 21.6-55.9 20.2-55.9 41.1-113.7 91-148.3 13.1-8.3 27.1-14.7 40.3-20.4 13.7-5.8 26.3-11 37.6-15.3 63.4-24.1 107.1-56.4 111.3-82.3 2.3-13.3-4-23.5-10-33.3-4.8-7.7-9.3-15-9.3-23.4 0-11.3 9-42 17-69.1 5-17 9.3-31.7 10.4-38.3 1.8-10.7-0.5-31.4-2.4-48.1-1.2-10-2.2-18.7-2.2-24 0-14.3 35.3-70 36.8-72.3l2.1 1.4c-0.4 0.6-36.4 57.4-36.4 70.9 0 5.1 1 13.7 2.1 23.7 2 17.7 4.3 37.8 2.5 48.8-1.1 6.8-5.5 21.6-10.5 38.6-7.6 25.6-16.9 57.5-16.9 68.4 0 7.6 4.3 14.6 8.8 22 6.1 9.7 12.9 20.8 10.5 35.2-4.5 27.1-47.8 59.4-112.9 84.3-11.3 4.3-23.9 9.4-37.5 15.3-13.2 5.6-27.1 12-40 20.1-49.2 34.2-69.9 91.5-89.9 147-6.8 18.8-13.8 38.2-21.8 56.1-19.4 39.3-59 63-97.3 85.9-15.3 9.2-31.2 18.7-45.3 29-7 6.5-15.2 14.7-25 24.9-33.7 35.1-57 57.5-69.4 66.7-11.8 8.8-31.8 18.9-52.9 29.6-31.6 16-64.3 32.5-68.7 44.3-3.7 10.1-0.7 18.1 2.2 25.9 2.7 7.4 5.3 14.3 1.1 21.7-4.5 8-12.5 4.9-21 1.7-8.2-3.2-16.7-6.4-24-1.3-6 4.3-19.4 20-35 38.3-24.7 29.1-52.7 62.1-66.4 67.2-6.5 2.4-25.1 8.1-55.2 16.7-13 3.7-26.9 7.6-40.6 11.5-8.3 2.6-16.7 5.3-25.2 7.9-19.4 6.2-39.6 12.5-58.1 19zm599.4 71.3l-1.2-0.5c0.2-0.6 20.7-58.8 15.9-73.7-4.7-14.9-52.5-61.3-70.2-70.3-7.8-4-34.7-4-60.8-4.1-34-0.1-66.2-0.2-70.2-7.5-5.4-10-43.4-84.8-43.4-103.8 0-9.2 17.9-18.6 40.5-30.6 24.6-12.9 52.4-27.6 66.3-46.4 5.2-7 13.6-18.2 24.1-31.4 10.1-12.7 19.7-24.2 28.5-34.2 21.2-35.5 58.5-43.8 95.1-21.1 5.9 4.2 15.9 4.3 19.9 0.2 2.9-5.5 4.3-11.2 5.6-16.8 2.3-9.9 4.5-19.3 15.4-25 25.4-11.9 68.1-39.6 68.1-91.3 0-70.9 0-151.2 64.3-191.4 6.7-4.1 21.2-9.1 44.3-15.1 3.6-0.9 7.1-1.8 10.6-2.7 14.4-3.7 27.9-7.2 35.2-9.7 18.9-6.6 114.8-82.2 122.6-103.3 4.9-13-5.6-32.6-14.8-49.9-6.4-11.9-11.8-22.1-11.8-28.9 0-16.4 22.9-80.2 23.8-82.9l1.2 0.5c-0.2 0.7-23.8 66.2-23.8 82.4 0 6.5 5.7 17 11.6 28.2 9.4 17.6 20.1 37.5 15 51.1-7.9 21.2-104.4 97.4-123.5 104-7.2 2.6-20.8 6.1-35.2 9.8-3.5 0.9-7 1.8-10.6 2.7-22.9 6-37.4 10.9-44 14.9-63.6 39.8-63.6 119.8-63.6 190.3 0 22.5-9 64.5-68.9 92.5-10.3 5.4-12.4 14.5-14.7 24.1-1.3 5.7-2.7 11.6-5.8 17.2l-0.1 0.1c-4.3 4.6-15 4.7-21.5 0.1-35.9-22.2-72.6-14.1-93.4 20.8-8.9 10.1-18.5 21.6-28.5 34.2-10.5 13.2-18.9 24.4-24.1 31.4-14.1 19-42.1 33.8-66.7 46.8-21.4 11.3-39.9 21-39.9 29.4 0 17.5 34.1 86.2 43.3 103.1 3.6 6.7 38.4 6.8 69.1 6.9 27.4 0.1 53.3 0.1 61.3 4.2 17.9 9.1 66.1 56 70.9 71.1 4.9 15.3-15.1 72.1-15.9 74.6zm35-91.2c-0.8-0.7-79.7-74.5-91.7-80.6-5.5-2.8-21-2.9-37.3-3.1-19.2-0.3-39-0.5-47.5-4.8-12.6-6.4-35.7-46.7-39.2-68.3-1-6.3-0.4-10.6 1.9-13 5.7-6.1 16.8-12.1 31-19.8 12.3-6.6 27.6-14.9 43.4-25.6 16.5-11.1 29.1-28.3 40.1-43.6l0.6-0.7c10.7-14.7 20.8-28.5 31.7-30.2 20-3.7 40 2.3 59.4 8.2 21.4 6.6 41.6 12.7 61 5.9 24.8-7.3 46.1-24.2 61.7-48.9 14.8-23.6 22.9-52.6 22.9-81.7 0-16.7-1.7-34.4-3.6-53.3-5.9-60.2-12.6-128.5 44.4-164.7 11.9-7.6 25.1-13.2 34-16.7 10.7-4.2 19.8-7.4 25.7-9.1 22-6.3 72.2-43.8 96.3-61.8l3.4-2.5c23.4-17.5 58.9-64.7 58.9-69.3h1.3c0 5.2-35.6 52.6-59.5 70.4l-3.4 2.5c-26 19.4-74.4 55.6-96.7 61.9-5.8 1.7-14.9 4.9-25.6 9.1-8.8 3.5-22 9.1-33.8 16.6-56.3 35.8-49.9 100.7-43.7 163.5 1.8 18.9 3.6 36.7 3.6 53.4 0 29.4-8.3 58.6-23.2 82.4-15.7 25-37.3 42.1-62.4 49.5-19.6 6.9-40.1 0.7-61.7-5.9-19.2-5.9-39-11.9-58.8-8.2-10.5 1.6-20.4 15.2-30.9 29.7l-0.6 0.7c-11.1 15.3-23.7 32.7-40.4 43.9-15.9 10.7-31.3 19-43.6 25.7-14 7.6-25 13.6-30.7 19.5-1.9 2-2.4 6.1-1.5 11.8 3.5 21.4 26.2 61.1 38.6 67.4 8.2 4.2 27.9 4.4 46.9 4.6 16.5 0.2 32.1 0.4 37.9 3.4 12.1 6 88.7 77.7 91.9 80.7zm22.2-12.5c-0.8-0.9-85.4-88.5-105.3-97.4-9.5-4.3-20.3-3.6-29.9-3-10.9 0.7-21.1 1.4-27.5-5.3-11.6-12.3-19-33.6-15.4-44.6 2-6.1 20-20.2 47.2-41.1 15.6-11.9 30.3-23.2 36.2-29.4 3.6-3.8 10.4-6.7 20.4-8.7 9.7-1.6 20.6-2.1 31.6-1.4q0 0 0 0c20.6 0 41.5 2.1 54.3 17.9 11.3 14.6 7.2 32.4 3.2 49.6-2.8 12.4-5.7 25.1-3.4 36.9 1.8 8.9 7.6 31 16.6 50.8 7.4 16 19 35.1 32.9 35.1 6.3 0 15.2-1.2 25.6-3.6 8.6-1.9 18.6-4.6 31.4-8.6l0.3-0.1c48.8-16.5 99.3-33.6 128-74.7 5.4-6.6 7.3-16 5.3-26.8-2.8-14.8-12.2-28.7-23.5-34.7-12.5-7.4-28.7-11-44.4-14.5-25.5-5.8-49.7-11.2-49.7-32.6 1-12.8 9.2-26.4 17.9-40.8 11.1-18.3 23.6-39 23.6-62-0.6-25.4-8-53.9-15.8-84-16.7-65.1-34.1-132.4 16-174.2l0.3-0.2c9.5-4.3 20.1-7.4 30.4-10.5 4.4-1.3 9-2.6 13.3-4 23.8-7.7 75.7-46.9 106.7-70.3 5.8-4.4 10.9-8.2 14.9-11.2l1.5 2.1c-4.1 3.1-9.2 6.9-14.9 11.2-31.2 23.6-83.3 62.9-107.5 70.7-4.3 1.4-8.9 2.8-13.3 4.1-10.2 2.9-20.7 6-29.9 10.2-48.7 40.8-31.6 107.2-15.1 171.4 7.9 30.3 15.2 58.9 15.9 84.7 0 23.8-12.7 44.8-24 63.4-8.5 14.1-16.6 27.4-17.5 39.5 0 19.2 22.1 24.2 47.7 29.9 15.9 3.6 32.3 7.2 45.1 14.8 11.8 6.3 21.8 20.9 24.7 36.5 2.2 11.6 0.1 21.9-5.7 28.9-29.2 41.8-80.1 59-129.2 75.6l-0.4 0.2c-12.9 3.9-22.9 6.7-31.6 8.6-10.7 2.4-19.5 3.7-26.1 3.7-12.2 0-24-12.4-35.1-36.7-9.2-20-15-42.3-16.8-51.3-2.5-12.5 0.5-25.5 3.4-38.1 4-17.4 7.8-33.8-2.7-47.3-12.2-15-32.4-17-52.5-17-10.8-0.7-21.6-0.2-31.1 1.4-9.3 1.9-15.9 4.6-19 7.9-6 6.4-20.9 17.7-36.5 29.7-20.8 16-44.4 34.1-46.3 39.9-3.3 10 3.9 30.4 14.8 41.9 5.5 5.8 14.8 5.2 25.6 4.5 9.8-0.6 21-1.4 30.9 3.1 20.4 9.2 102.7 94.4 106.2 98zm164.8-53.2l-0.7-1.1c14.3-10.6 32.5-18.4 50.1-25.8 31.4-13.3 61.1-25.9 67.6-53.4 7.4-25.7-0.4-61.8-18.7-87.9-15.4-21.8-36.6-33.8-59.5-33.8h-0.8l0.2-0.8c1.7-8.3 6-15.5 10.2-22.4 6-10 11.7-19.5 10.5-32.1-3.7-31.4-11.9-62.2-19.7-91.9-13.9-52.4-28.3-106.6-17.6-164.2 1.5-9.9 13-11.4 24.1-12.9 4.2-0.6 8.5-1.2 12.1-2.2 3-0.7 8.6-3.7 16.8-8.9 38.3-24.4 121-90.9 121.9-91.6l0.7 1.1c-0.8 0.7-83.6 67.2-121.9 91.7-8.5 5.3-14.1 8.3-17.2 8.9-3.6 1.1-8 1.7-12.2 2.3-10.7 1.4-21.7 2.9-23.1 11.9-10.6 57.2 3.1 108.8 17.6 163.5 7.9 29.8 16 60.6 19.8 92.2 1.2 13-4.9 23.1-10.7 32.9-4 6.6-8.1 13.5-9.9 21.2 23 0.3 44.2 12.4 59.7 34.3 18.6 26.4 26.4 63 18.9 89-6.6 28.2-36.6 40.9-68.3 54.3-17.6 7.4-35.7 15.1-49.9 25.7zm-39.9-19.8c-5.9 0-11.7-1.3-17.1-5.1-19.5-20.6-34.5-54.3-12.6-81.9 20.5-29.6 58.3-11.6 85.9 1.5 3.6 1.8 7 3.4 10.3 4.9 13.5 7.1 18.8 23.1 12.8 38-5.8 12.2-15.5 21.5-29.6 28.5h-0.1c-6.9 3.1-16.6 6.4-26 9-6.9 2.3-15.2 5.1-23.6 5.1zm1.3-101.9c-11.5 0-22 4.2-30 15.7-21.4 27-6.7 60 12.4 80.1 11.6 8.1 24.8 4.7 39.5-0.3 9.4-2.5 19.1-5.9 26-8.9 13.8-6.9 23.3-16 28.9-27.9 5.8-14.2 0.7-29.5-12.1-36.3-3.3-1.4-6.7-3-10.3-4.8-17.2-8.2-37-17.6-54.4-17.6zm7.5 74.8c-4.5 0-8.3-1.1-10.7-3.6l-0.1-0.2c-6.7-13.2-7.6-31.5 3.5-40.9 2.2-2.8 4.8-4.3 7.7-4.5 7.3-0.5 15.1 7.1 22 13.8 2.2 2.2 4.4 4.3 6.4 6 1.3 1.4 5.4 6.2 5 12-0.1 3.4-1.7 6.4-4.7 8.9h-0.1c-9.6 4.7-20.6 8.5-29 8.5zm-9.7-4.5c6.5 6.8 24.5 1.5 38.1-5.1 2.6-2.3 4-4.9 4.2-7.9 0.3-5.3-3.5-9.7-4.7-10.9-1.9-1.7-4.1-3.8-6.4-6-6.7-6.5-14.4-13.9-21-13.5-2.6 0.2-4.9 1.5-6.9 4.1-10.7 9.1-9.8 26.6-3.3 39.3zm177-288q-7.8 0-13.5-4c-16.3-11.7-16.9-46.3-17.3-71.5-0.1-5.2-0.2-10-0.4-14.3 0-7.7 0-14.4 0-19.3v-4.2c0-8-6.3-16.7-13.1-26-8.8-12.1-17.8-24.6-12.4-36.1 6-12.6 45.5-35.1 80.4-55 20.4-11.6 38-21.6 45.9-27.9l0.7 1c-8 6.4-25.6 16.4-46 28.1-33 18.8-74.1 42.2-79.9 54.4-5.1 10.7 3.8 22.9 12.3 34.7 6.9 9.4 13.4 18.4 13.4 26.8l-0.1 4.2c0 4.9 0 11.6 0.1 19.3 0.2 4.2 0.3 9.1 0.3 14.3 0.4 24.9 1 59.1 16.8 70.4 7.1 5 16.8 5.1 28.9 0.2 14-3.2 33.4-7.4 41.6-7.4v1.3c-8.1 0-27.4 4.2-41.2 7.4q-9.1 3.6-16.5 3.6zm52.7-50.2c-19.1-12.4-73.1-81.6-70.1-111.3 2.1-21.3 37.1-34.7 71-47.6 12.4-4.8 25.2-9.7 35.8-14.8l0.6 1.2c-10.7 5.1-23.6 10.1-36 14.8-33.5 12.8-68.1 26-70.2 46.5-1.3 12.4 8.3 34.6 26.3 60.9 15 21.9 33.2 42.6 43.2 49.1zm45.3 159.1c-14.7-4-32.3-4.1-49.3-4.2-28.6-0.2-55.5-0.4-59.5-20.2-1.4-4.8-0.9-9.2 1.5-13 9.5-14.8 46.5-18.2 73.5-20.8 4.2-0.4 8.1-0.7 11.7-1.1l0.1 1.3c-3.5 0.4-7.5 0.7-11.7 1.1-26.8 2.6-63.4 6-72.5 20.3-2.3 3.5-2.7 7.3-1.4 11.8 3.8 18.9 30.3 19.1 58.3 19.3 17.1 0.1 34.8 0.2 49.6 4.3zm-243.6 252.1l-1.3-2.3c18-11.7 38.8-21.3 59-30.7 43.9-20.4 89.4-41.5 107.7-84.6 6-14.8-6.4-32.6-18.3-49.8-12-17.2-24.4-35-19.1-50.7 1.6-6.1 4.8-10.5 9.4-13.2 12.9-7.6 35.5-0.5 59.5 7 18.9 5.9 38.6 12.1 53.7 10.9l0.2 2.6c-15.6 1.2-35.4-5-54.6-11-23.4-7.3-45.6-14.3-57.6-7.2-4.1 2.3-6.8 6.2-8.2 11.7-4.9 14.5 7.1 31.7 18.7 48.3 12.4 17.8 25.2 36.2 18.6 52.5-18.7 44-64.6 65.3-109 85.9-20.1 9.3-40.8 19-58.7 30.6zm29.2 1.1l-0.6-1.2c14.1-8.5 30.3-16.2 47.5-24.3 52.3-24.7 106.4-50.3 112.6-105.9 0.9-8.3-6.1-17.3-12.8-25.9-8.6-11-17.5-22.3-7.7-31.3 6.6-5.8 14.2-0.1 22.2 5.9 7.8 5.8 16.7 12.4 25.7 9.2 12-3.7 22.5-11.8 33.6-20.4 7.9-6.2 16.2-12.5 25.3-17.5l0.5 1.2c-9 4.9-17.2 11.2-25.1 17.4-11.2 8.6-21.7 16.8-33.9 20.6-9.6 3.4-18.8-3.4-26.8-9.5-8-5.9-14.9-11.1-20.7-5.9-8.8 8.1-0.7 18.5 7.8 29.5 7 8.8 14.1 18 13.2 26.9-6.3 56.3-63.2 83.2-113.4 106.9-17.2 8.1-33.3 15.7-47.4 24.3zm86.8-29l-0.4-1.2c47.8-20.8 74.3-62.2 102.3-106q4.1-6.4 8.3-13c11.1-17.4 30.1-28 48.6-38.2q3.7-2.1 7.3-4.1l0.6 1.1q-3.6 2.1-7.4 4.1c-18.3 10.2-37.2 20.7-48.1 37.9q-4.2 6.5-8.3 13c-28.1 43.9-54.6 85.5-102.9 106.4zm11.7 8.3l-0.6-1.1c51.4-32 86.2-66.2 109.5-107.6 8.2-15.7 24.4-25.9 40-35.8 4.1-2.6 8.4-5.3 12.3-8l0.7 1.1c-4 2.7-8.2 5.4-12.3 8-15.5 9.8-31.6 19.9-39.7 35.3-23.3 41.7-58.2 76-109.9 108.1zm20.6 1.8l-0.7-1.1c5.9-4.2 12-8.3 17.8-12.3 19.1-13 38.8-26.4 54.6-44.7 3.6-4.5 7.2-9.1 10.7-13.6 18.4-23.7 35.9-46 62.4-60.1l0.6 1.1c-26.3 14-43.7 36.3-62.1 59.9-3.4 4.4-7 9-10.6 13.5-16 18.5-35.8 32-54.9 45-5.9 4-11.9 8.1-17.8 12.3zm22 4.2l-0.6-1.2c36.2-18.7 62.8-47.6 91.8-85.2 13.8-19.3 32.6-30.2 47.4-37.5l0.5 1.2c-14.7 7.2-33.3 18-46.9 37.1-29.1 37.8-55.9 66.7-92.2 85.6zm21.3 1.1l-0.7-1 4.6-3.7c28.2-22.2 54.8-43.2 76.3-78.3 4.7-7.3 19-11.7 27.2-13.7l0.3 1.3c-8 1.9-22 6.2-26.4 13.1-21.7 35.3-48.4 56.4-76.6 78.7zm-1234.9 29.4l-1.1-0.5c17.5-42.9 24.5-86.4 31.9-132.3 4.9-30.5 10-62.1 18.4-93.3 2.8-7.4 9.2-8.2 15.4-8.9 3.4-0.5 6.9-0.9 9.9-2.4 2.8-1.5 5.9-5.5 6.3-8.2q0.2-1.2-0.3-1.7l-0.1-0.2c-5.7-11.2-11.7-22.5-18-34.5-34.2-64.1-72.9-136.7-46.3-200.1 6.9-17.3 22.3-31.1 38.5-45.7 23.1-20.8 47-42.2 50.6-76.6 6.1-66.8-11.4-131.1-53.6-196.7-37.2-57.7-87.9-108.6-136.9-157.8q-9.5-9.5-18.9-19c-14.3-17.2-29.1-35-41.7-55.7-6.2-9.2-13-18.9-19.7-27.7-15.1-19.9-27.1-31.2-37.7-35.5-35.7-14.5-132.4-42.2-151.7-42.2v-1.3c19.4 0 116.3 27.7 152.1 42.3 10.8 4.4 23 15.8 38.3 35.9 6.7 8.8 13.5 18.5 19.8 27.7 12.5 20.7 27.3 38.5 41.5 55.6 6.2 6.3 12.5 12.6 18.8 19 49.1 49.2 99.8 100.1 137.1 158 42.4 65.8 60 130.4 53.9 197.6-3.7 34.9-27.8 56.5-51.1 77.4-16.1 14.5-31.4 28.2-38.2 45.2-26.3 62.8 10.6 132 46.2 199 6.4 11.9 12.4 23.2 18.1 34.4 0.4 0.5 0.8 1.4 0.6 2.8-0.5 3.1-3.8 7.4-7.1 9.2-3.1 1.6-6.7 2-10.2 2.5-6.1 0.7-11.9 1.4-14.4 8-8.4 31.1-13.5 62.6-18.4 93.1-7.4 46-14.4 89.5-32 132.6zm114.3-262.9c-7.5 0-18.7-7.2-21.5-13-7-17-16.7-35-27-54-29.2-54-59.4-109.8-26.9-145.8l0.6-0.6c41.5-45.9 88.5-97.9 82.3-165.1-11.4-128.8-95.8-221.1-177.5-310.4-21.7-23.8-44.2-48.4-64.5-72.9-6.9-9.6-12.4-20.1-17.6-30.3-2.4-4.5-4.8-9.1-7.2-13.6-7.4-13.2-16.2-26.5-31.3-34.7-29.7-16.1-157.6-48.9-162.1-48.9v-1.3c4.6 0 132.9 32.9 162.6 49.1 15.5 8.3 24.8 22.4 31.9 35.2 2.4 4.4 4.8 9.1 7.2 13.6 5.2 10.1 10.6 20.6 17.5 30.1 20.2 24.4 42.7 49 64.4 72.8 81.8 89.4 166.4 181.9 177.8 311.2 6.2 67.8-41 120-82.6 166.1l-0.6 0.6c-31.9 35.3-1.9 90.7 27.1 144.2 10.3 19.1 20 37.1 27 54.1 2.8 6 15.8 13.7 22.3 12.1q3.5-0.9 3.5-5.2c-0.9-21-13.4-40.8-25.4-59.9-15.4-24.2-29.9-47.1-18.1-69.5 7.8-16.4 23.3-30 38.3-43.1 20.9-18.3 42.6-37.2 42.6-63.8l-0.1-0.7c-2.1-102.1-4.1-198.6 13.1-299.8 1.9-12.3 4.3-24.9 6.8-36.3 6.7-30.2 13.9-50.7 21.5-60.9 5.5-7.4 10.8-13.3 15.9-19.1 11-12.2 20.4-22.8 24.6-40.7 6.3-27.3 43.8-154.7 55.9-174.4 12-19.8 44.5-29.6 44.8-29.7l0.3 1.3c-0.3 0.1-32.3 9.7-44.1 29.1-12 19.7-49.4 146.7-55.7 174.1-4.2 18.1-13.8 28.8-24.9 41.2-5.1 5.7-10.4 11.7-15.8 19-7.5 10.1-14.7 30.4-21.3 60.4-2.5 11.4-4.8 23.9-6.8 36.2-17.1 101.1-15.1 197.5-13 299.6v0.7c0 27.2-21.9 46.3-43 64.8-14.9 13-30.3 26.5-38 42.7-11.4 21.7 2.9 44.3 18 68.2 12.2 19.3 24.7 39.1 25.7 60.5 0 4.5-2.5 6-4.5 6.5q-1 0.3-2.2 0.3zm83.4-662.2c-8.2 0-19.6-18.4-32.6-39.5-10-16.3-21.5-34.8-32.7-46.7-7.2-7.5-14-14.2-20.5-20.6-17.7-17.4-31.7-31.1-38.4-48.2-9.2-23.6-37.2-65.5-70.6-84.6l0.6-1.2c33.7 19.3 61.9 61.5 71.2 85.3 6.6 16.9 20.4 30.5 38 47.7 6.6 6.4 13.4 13.1 20.6 20.7 11.3 11.9 22.8 30.5 32.9 46.9 13.3 21.6 25.9 42 33.2 38.5 11-5.2 13.9-48.3 15.9-76.8 0.4-5.5 0.8-10.7 1.1-15.2 1.4-16.8 12.2-30.1 23.6-44.2 8.5-10.6 17.4-21.5 23.7-35.1 8-17.1 8.2-29.2 8.3-38.8 0.1-8.4 0.2-15 5.8-20.8 11.8-12.5 17.6-7.2 17.9-6.9l-0.8 0.9c-0.1 0-5.4-4.6-16.2 6.9-5.2 5.5-5.3 11.5-5.4 19.9-0.2 9.8-0.3 22-8.5 39.4-6.4 13.8-15.3 24.7-23.8 35.3-11.3 14-21.9 27.1-23.3 43.5-0.4 4.5-0.8 9.7-1.1 15.2-2.2 30.6-5 72.4-16.7 77.9q-1.1 0.5-2.2 0.5zm-121.8 494.5c-6.3 0-13.1-1.3-20.2-4.7-7.3-4.6-13.4-16.2-13.4-25.4 0-4.9 1.8-8.6 5.1-10.7 43.5-28.6 71.6-72 81.1-125.6 8.6-48.1 0.9-101.6-21.2-147-61.8-125.1-127.1-211.8-205.6-272.9-2.5-2.7-6.3-8.2-12.8-18.7-2.7-4.4-5.7-9.2-8.9-14.4-15.9-26.1-35.7-58.5-48.5-68.4-8.5-6.6-41-16.6-94.2-29-41.3-9.7-79.7-17.2-81.1-17.2v-1.3c1.2 0 154.6 29.8 176 46.4 13 10.1 32.9 42.6 48.9 68.8 3.1 5.1 6.1 10 8.8 14.4 4.6 7.3 9.7 15.2 12.6 18.4 78.6 61.1 144 148 205.9 273.3 22.2 45.6 30 99.5 21.4 147.8-9.7 54-37.9 97.7-81.8 126.5-3.7 2.3-4.4 6.5-4.4 9.6 0 8.6 5.9 20 12.7 24.3 18.9 8.9 36.2 2.8 47.3-3.8 21.2-12.7 38.5-38.5 41-61.4 2.2-34.6 1.8-69.5 1.5-103.3-0.6-63.8-1.2-129.8 15.2-194.7 1.2-8 2.4-16.1 3.6-23.8 1.3-9.4 2.6-18.2 3.9-26.3 1.1-7.2 2.9-14 4.5-20.6 5.1-20 9.8-38.8-4.4-61.3-18.9-29.9-65.7-93.9-91.5-121.2-9.1-9.5-15-22.1-21.1-35.3-11.7-25.2-25-53.7-64.8-72.7l0.5-1.2c40.2 19.1 53.6 47.9 65.4 73.3 6.1 13.2 11.9 25.6 20.8 35 25.9 27.3 72.8 91.5 91.7 121.4 14.6 22.9 9.7 42.1 4.6 62.3-1.6 6.6-3.3 13.4-4.5 20.5-1.2 8.1-2.5 16.9-3.9 26.3-1.2 7.7-2.4 15.8-3.6 23.9-16.3 64.8-15.7 130.7-15.1 194.4 0.3 33.8 0.6 68.7-1.5 103.4-2.7 23.4-20.1 49.6-41.6 62.4-7.3 4.4-17.2 8.5-28.4 8.5zm30.6 147.3c-0.8 0-1.7-0.3-1.9-0.4-4.9-2.5-9.2-10.8-14.1-20.4q-1.2-2.4-2.4-4.7c-4.6-7.8-12.2-22.7-19-37.3-12.1-25.5-10.9-26.3-10.3-26.8 0.7-0.4 1.5 0 4.1 3.7 16 23.2 41.4 66.2 45 84.7 0.1 0.3 0 0.7-0.3 0.9-0.2 0.2-0.6 0.3-1.1 0.3zm-1.4-1.6c0.2 0.1 1 0.3 1.5 0.3q0 0 0 0c-3.7-17.9-28.3-60-44.8-83.8-1-1.5-1.6-2.3-2-2.7 1.5 6.7 19.7 45.2 29.3 61.6q1.3 2.4 2.5 4.7c4.8 9.5 9 17.6 13.5 19.9zm-25.1-165.2q-1.6 0-3-0.4c-2.9-0.9-4.6-3.3-5-7.2-3.6-19 7.7-30 23.4-45.2 11.6-11.3 26.1-25.3 38.9-47.1 0.5-0.8 1.3-1.9 2.3-1.6 2.5 0.8 2.3 11.2 1.2 34.2-0.3 4.3-0.5 8.1-0.5 10.7v0.1c-1.4 7.1-5.5 16.5-11.2 25.2-10.5 13.6-33.8 31.3-46.1 31.3zm56.2-100.3c0 0.1-0.3 0.2-0.8 1.1-12.9 21.9-27.5 36-39.2 47.4-15.4 14.9-26.5 25.6-23 44 0.4 3.4 1.7 5.4 4.2 6.2 10.5 3.2 36.8-16.4 47.7-30.5 5.5-8.4 9.6-17.7 10.9-24.6 0.1-2.6 0.3-6.4 0.5-10.7 0.5-10.3 1.7-31.7-0.3-32.9zm59.7-398.4c-5.7 0-16.8-17.5-29.7-37.7-10.3-16.1-20.9-32.7-29.6-41.9-19.8-20.9-47.8-66.6-56.8-89.3l-0.7-1.7c-8.4-21.4-10.7-27.1-30-41.5l0.7-1c19.7 14.5 21.9 20.3 30.5 41.9l0.7 1.8c8.9 22.6 36.7 68.1 56.5 88.9 8.8 9.2 19.4 25.9 29.7 42.1 11.6 18.2 23.7 37.1 28.7 37.1q1.1 0 2-1c5.8-6.1 5.5-36.2 5.3-58.3 0-3.7 0-7.3 0-10.5 0-25.5 23-59.7 45.2-78 11.9-9.8 11.4-26.5 11.1-41.3-0.4-12.9-0.7-24.1 7.2-28.2l0.6 1.1c-7.2 3.8-6.9 14.6-6.6 27.1 0.4 15 0.9 32.1-11.5 42.3-22 18.2-44.8 51.9-44.8 77 0 3.2 0 6.8 0.1 10.5 0.2 23.5 0.4 52.8-5.7 59.2q-1.3 1.4-2.9 1.4zm-8.5-34.5c-3 0-5.8-5.7-12.4-19.6-8.3-17.4-20.7-43.7-38.8-62.8-15.2-16-25.3-34.4-35-52.2-9.8-18-19.1-35-33.2-49.9l1.7-1.8c14.4 15.1 24.2 33 33.7 50.4 9.6 17.6 19.6 35.9 34.5 51.7 18.4 19.4 31 45.9 39.3 63.4 4 8.4 8.5 18 10.2 18.1 0.2 0 0.3 0 0.4-0.2 1.3-1.3 0.9-7.5 0.5-14.1-0.5-8.9-1.2-21.2 0.9-33.3 4.3-24.6 36.9-68.7 53.4-80.3 7.6-5.3 7-20.7 6.5-35.6-0.5-16.3-1.1-31.6 8.3-36.1l1 2.3c-7.8 3.8-7.3 19-6.8 33.7 0.6 15.6 1.1 31.8-7.6 37.9-16.2 11.4-48.1 54.5-52.4 78.6-2 11.8-1.3 23.9-0.8 32.7 0.5 8.3 0.8 13.8-1.1 16-0.6 0.7-1.4 1.1-2.3 1.1zm-51.4 263.2c-2.6 0-4.9-1.5-6.1-4-32.3-71-77.5-135.5-121.2-197.9-9.4-13.4-19.2-27.3-28.6-41-7.9-11.6-17.7-25.7-22.7-31-5.6-5.9-12.8-10.1-20.5-14.5-10.6-6.1-22.5-13.1-31.9-26-4.7-6.4-10.2-15.8-16.6-26.8-15.4-26.1-34.5-58.6-53.5-70.2-26.9-16.4-121.9-35.7-122.8-35.9l0.4-2.6c3.9 0.8 96.4 19.6 123.6 36.2 19.6 12 38.9 44.8 54.4 71.2 6.4 10.8 11.9 20.2 16.5 26.5 9 12.5 20.3 19 31.1 25.3 7.8 4.5 15.2 8.8 21 15 4.1 4.3 11 13.6 23 31.2 9.5 13.7 19.2 27.6 28.6 41 43.7 62.5 89 127.2 121.5 198.3 0.9 2.1 2.8 2.7 4.2 2.5 1.4-0.1 3.1-1 3.7-3.2 5.7-21.9 7.8-43.9 9.9-67.2 1.5-15.8 3-32.1 5.8-48.4 1.7-13.1 3.4-26.8 4.5-38.6 1.2-11.2 1.8-19.9 1.8-23.7 0-14.3-17.1-41.6-43.7-69.6-22.8-24.1-60.1-84-78.1-112.8l-3.5-5.6c-16.7-26.8-72-66.7-72.6-67.1l1.4-2.1c2.3 1.6 56.4 40.5 73.3 67.7l3.5 5.7c17.9 28.7 55.1 88.5 77.8 112.4 21.5 22.6 44.4 53.2 44.4 71.4 0 4-0.6 12.5-1.8 24-1.2 11.9-2.8 25.6-4.6 38.7-2.7 16.2-4.2 32.5-5.7 48.2-2.2 23.4-4.2 45.6-10 67.7-0.8 2.8-3.1 4.9-5.9 5.1q-0.3 0.1-0.6 0.1zm-5.2-36.6c-2.5 0-4.6-1.4-5.6-3.9-20.9-51-53.7-96.1-85.4-139.8-15.8-21.7-32.1-44.2-46.9-67.3-10.8-16.4-21.7-32.5-27.8-38.9-7.5-8-17.1-13.4-26.4-18.6-12.5-7.1-24.4-13.9-31.4-26.4l-3-5.3c-12.5-22.5-31.3-56.5-49.8-75.9-19.7-20.8-80.5-33.3-81.1-33.4l0.2-1.3c0.2 0 15.6 3.2 33.3 8.9 23.8 7.6 40.1 16 48.5 24.9 18.5 19.5 37.5 53.6 50 76.2l2.9 5.2c6.9 12.3 18.6 18.9 31 25.9 9.4 5.3 19 10.8 26.7 18.9 6.2 6.5 17.1 22.6 27.9 39.1 14.8 23 31.1 45.5 46.9 67.2 31.8 43.8 64.6 89 85.5 140.1 1.1 2.7 3.5 3.3 5.2 3.1 1.7-0.2 3.8-1.5 4.2-4.4 1.7-12.4 2.6-24.8 3.4-36.7 0.6-8.3 1.2-16.9 2.1-25.5 0.9-5.8 1.8-11.6 2.7-17.2 1.8-11.3 3.5-22.1 4.8-31.5 1.9-15.2 2.5-25.5 1.5-29.8-3.7-16.3-18.5-31.5-34.1-47.6q-4.1-4.2-8.2-8.5c-9.5-10.1-27.8-38.6-45.5-66.1-17.1-26.7-34.9-54.4-43.8-63.8-17.9-18.9-85-71.2-85.6-71.8l0.7-1c0.7 0.5 67.8 52.9 85.8 71.9 9 9.5 26 36 44 64 17.6 27.5 35.8 55.9 45.3 65.9q4.1 4.3 8.2 8.4c15.7 16.3 30.6 31.6 34.4 48.2 1 4.6 0.5 14.8-1.5 30.4-1.2 9.4-3 20.2-4.8 31.5-0.9 5.6-1.8 11.4-2.6 17.1-0.9 8.6-1.5 17.2-2.1 25.5-0.9 12-1.8 24.4-3.5 36.8-0.4 3-2.4 5.1-5.2 5.5q-0.5 0-0.9 0zm-10.9-50.4q-0.2 0-0.3-0.1c-3.1-0.5-6.9-8.3-7.3-9.2-13.9-52.2-48.8-94-82.5-134.5l-0.9-1.2c-7.7-10-15.7-20.3-23.8-30.5-15.5-19.6-26.9-33.3-29.7-36.4-4.3-4.5-13.3-10.1-22.8-16-11.4-7.1-23.2-14.5-30-21.7-6.4-6.7-17.6-25.3-28.5-43.3-10.9-18-22.1-36.6-28.4-43.2-12.3-13-44.5-22-44.9-22.1l0.3-1.2c1.4 0.3 32.9 9.1 45.5 22.4 6.3 6.7 17.6 25.3 28.5 43.3 10.9 18 22.1 36.6 28.4 43.2 6.7 7.1 18.4 14.4 29.7 21.5 9.6 5.9 18.6 11.6 23 16.2 3 3.1 14.2 16.7 29.9 36.4 8.1 10.3 16.1 20.6 23.7 30.6l1 1.1c33.8 40.6 68.7 82.6 82.6 135 1.8 3.7 4.7 8 6.4 8.3q0.3 0.1 0.6-0.2c8-9.9 8.1-21.6 8.2-34 0-5.7 0-11.6 0.9-17.3 2.6-13.9 4-25 4.2-33.8 0.2-10.6-1.4-18-4.6-21.3-6.8-7.2-29.5-39.6-53.7-74-27.9-39.8-56.7-80.9-66.6-91.3-18.4-19.4-90.7-80.6-91.4-81.2l0.8-1c0.7 0.6 73 61.8 91.5 81.2 9.9 10.5 38.8 51.7 66.7 91.5 24.1 34.3 46.9 66.8 53.6 73.9 3.5 3.6 5.1 11.1 4.9 22.3-0.2 8.8-1.5 19.9-4.2 33.9-0.8 5.6-0.8 11.4-0.9 17.1-0.1 12.7-0.1 24.6-8.5 34.9q-0.6 0.7-1.4 0.7zm-5.3-52.9c-0.4 0-1-0.2-1.7-0.9-1.3-1.4-5.4-8-12.3-19-3.4-5.4-7.5-11.9-12.1-19.2-8.4-13.3-16.4-25.6-24.3-37.5-10.3-15.6-20.8-30.8-31.1-45.2-46.3-64.9-60-76.6-87.3-93.4-27.8-17-74.5-85.1-75-85.8l1-0.8c0.5 0.7 47.1 68.6 74.6 85.5 27.5 16.9 41.3 28.6 87.7 93.7 10.3 14.4 20.8 29.7 31.1 45.3 8 11.9 15.9 24.2 24.3 37.4 4.7 7.4 8.7 13.9 12.2 19.3 6.5 10.5 10.9 17.5 12.1 18.8 0.7 0.7 1 0.5 1.1 0.4 1.9-1.3 2.3-12.8-2.4-25-0.9-2.3-4.1-8-9.4-16.4-27.5-43.6-95.1-139.4-111.9-151.8-20.5-15.2-106.1-105.4-106.9-106.3l0.8-1c0.9 1 86.4 91.1 106.9 106.2 17.7 13.2 87.8 113.6 112.1 152.2 5.4 8.6 8.7 14.2 9.6 16.6 4.5 11.9 4.8 24.6 1.9 26.6-0.3 0.2-0.6 0.3-1 0.3zm61.2-176.1c-0.4 0-0.8-0.2-1.3-0.6-4.6-4.9-67.8-100.5-79-128.3l1.2-0.5c11.1 27.7 74.1 123 78.7 127.8 0.3 0.3 0.4 0.3 0.4 0.3 1.7-0.5 4.2-8.9 6.8-17.9 4.5-15.3 10.6-36.3 20.1-46.4 2.9-3 5.6-5.6 8.3-8.1 13.2-12.5 22.7-21.6 20.7-55.4l1.3-0.1c2 34.4-8.2 44.2-21.2 56.5-2.7 2.5-5.4 5.1-8.2 8-9.3 9.8-15.4 30.7-19.8 45.9-3.5 11.9-5.4 18.1-7.7 18.7q-0.1 0.1-0.3 0.1zm-5.4-36.1c-6 0-15.6-22.8-30.5-59.4-4.5-11.3-9.3-22.9-13.4-32.3l1.1-0.5c4.2 9.3 8.9 21 13.5 32.2 10.9 27 24.5 60.6 29.7 58.6 4.4-1.8 5.6-9.4 7-18.1 0.9-5.9 1.9-12.5 4.1-18.1 2-5 6-11.2 10.2-17.7 7.9-12.3 16.9-26.3 15.3-36.6l1.3-0.2c1.6 10.8-7.5 25-15.6 37.5-4.2 6.5-8.1 12.6-10 17.5-2.2 5.5-3.2 12-4.1 17.8-1.5 9.1-2.7 17.1-7.8 19.1q-0.4 0.2-0.8 0.2zm-2.8-39.9c-5.3 0-19.9-43.2-22.7-51.8l1.1-0.5c7 21.2 18.4 51 21.6 51 4.3 0 14.3-35.7 14.3-55.3h1.2c0 16.4-9.3 56.6-15.5 56.6zm-433.8 988.5c-11.3 0-12-14.4-12.7-29.5-0.7-16.2-1.6-34.4-13.9-41.9-24.4-14.9-106.2-12.8-107-12.8v-2.6c3.3-0.1 83.3-2.1 108.2 13.1 13.6 8.2 14.4 27.2 15.2 44 0.8 16.8 1.7 27 10.2 27 8.9 0 27.1-14.5 46.4-37.1 18.1-21.1 31.2-42.2 31.2-50.2 0-8.9-5.6-71.4-12.6-135.6-8.4-78.4-15.4-127-19.1-133.5-3.3-5.8-11.7-23.5-21.4-44-16.9-35.4-37.8-79.6-43.5-85.6-2-2.1-4.6-4.5-7.5-7.1-3.8-3.5-8.1-7.5-12-11.7-6.8-5.4-11-13.4-11.6-22.5-0.7-9.6 2.7-19 9.3-26 8.4-8.3 17.3-16.5 25.9-24.4 32.1-29.2 65.3-59.5 73.4-104 10.9-57.4-51.1-88.2-96.3-110.7-5.7-2.8-11-5.5-15.9-8l1.1-2.4c4.9 2.6 10.2 5.2 15.8 8 46 22.9 109 54.2 97.7 113.6-8.2 45.4-41.7 75.9-74.1 105.5-8.6 7.9-17.5 16-25.8 24.3-6.1 6.4-9.2 15.1-8.6 23.9 0.5 8.3 4.4 15.7 10.8 20.7 3.9 4.3 8.2 8.2 12 11.7 2.8 2.6 5.5 5.1 7.5 7.2 6 6.4 27.1 50.7 44 86.4 9.7 20.4 18.1 38 21.3 43.8 9.5 16.5 32.1 256.2 32.1 270.4 0 19.5-58.6 90-80.1 90zm36.4-81.4c-13.3 0-33.7-3.8-61-11.5-31.7-8.8-61.3-19.7-61.6-19.8l0.4-1.2c1.2 0.4 118.1 43.3 137 27.9 19-15.5-13.8-248.6-17.4-261-3.6-12.9-40.7-94.8-60.4-115.6-5.8-6.1-12.2-10.6-18.5-14.9-4.6-3.2-9-6.3-13.2-9.9-8.3-7.4-17.9-19.1-17.8-43.9 0.3-2.1 0.6-4.1 0.8-6.1 0.8-6.6 1.5-12.9 4.8-18l0.1-0.2c7.8-7.1 16.3-14.4 25.4-22.1 48.5-41.2 103.6-87.9 74-152.1-13.8-29.1-52.3-48.7-87.4-64.9l0.5-1.2c35.3 16.2 74.1 36 88.1 65.6 29.9 65-25.5 112.1-74.5 153.7-9 7.6-17.5 14.8-25.2 22-3.1 4.8-3.8 10.9-4.6 17.4-0.2 2-0.5 4-0.8 6 0 24.2 9.3 35.6 17.4 42.8 4.1 3.6 8.5 6.6 13.1 9.8 6.3 4.4 12.8 8.9 18.7 15.1 19.8 20.9 57.1 103.2 60.7 116.1 3.6 12.5 37 246.1 16.9 262.4q-4.4 3.6-15.5 3.6zm-40.5-35.8c-21.7 0-50.4-5.5-85-20.6l0.5-1.2c36.9 16.1 86.8 28.4 116.3 14.9 7.5-3.5 12.6-8.5 14.7-14.6 8.1-22.9-5.3-138-11.4-186.5-4.1-32.3-22-65.9-37.6-82.3-3-3.1-9-8.2-16.5-14.6-20.7-17.5-51.9-43.9-69.9-70.9-9.2-14-13.6-25.9-13.2-36.5 3.6-45.4 40.5-65.8 76.2-85.5 8.8-4.8 17.8-9.8 26.1-15 23.9-18.3 36.8-49 32.9-78.1-4.8-32.2-37.2-48.7-65.7-63.3-7.9-4.1-15.3-7.9-21.7-11.8l0.6-1.1c6.4 3.9 13.8 7.7 21.6 11.7 28.8 14.7 61.5 31.5 66.4 64.3 4 29.6-9.1 60.7-33.4 79.4-8.4 5.3-17.4 10.3-26.2 15.1-35.4 19.5-72 39.8-75.6 84.4-0.3 10.1 4.1 22.1 13.1 35.6 17.8 26.9 49 53.2 69.6 70.7 7.5 6.4 13.5 11.5 16.6 14.7 15.7 16.6 33.8 50.4 37.9 83.1 6.1 48.5 19.5 163.9 11.4 187.1-2.3 6.4-7.6 11.7-15.4 15.3-7.7 3.5-18.5 5.7-32.3 5.7zm-69.7-40c-4.4 0-8.6-0.2-12.3-0.5l0.1-1.3c35.1 3.3 95.9-8.2 114.2-25.8 3.7-3.6 5.6-7.4 5.6-11.2 0-25.9-19.7-147.1-34.8-171.5-6.3-10.1-22.1-21.4-40.3-34.4-24.8-17.6-52.9-37.6-65.2-60.9-6-11.3-10.9-21.5-14.8-31.2-4.8-11.6-8.2-22.3-10.5-32.5-8.5-29.7 5.9-61.7 36.6-81.6 12.1-7.7 25.7-13.3 38.8-18.8 33-13.7 64.2-26.7 72.9-68.3 1.9-9.6-7.1-24.5-24.6-41.1-15.6-14.8-35.3-28.2-50.2-34.1l0.4-1.2c30.8 12.2 79.8 54.7 75.7 76.7-9 42.3-40.4 55.4-73.7 69.2-13.1 5.5-26.7 11.1-38.7 18.7-22.9 14.9-46.1 44.8-36 80.1 2.3 10.2 5.7 20.8 10.4 32.4 4 9.6 8.8 19.8 14.8 31.1 12.1 23 40.1 42.9 64.8 60.5 18.3 13 34.2 24.3 40.6 34.7 15.2 24.5 35.1 146.2 35.1 172.2 0 4.2-2.1 8.3-6.1 12.1-17.6 17-69.2 26.7-102.8 26.7zm-25.3-23.3l-0.9-0.9c5.2-5.5 9.4-10.2 13.1-14.4 12.1-13.7 18.8-21.3 36.7-27.1 7.7-2.5 16.1-3.3 24.3-4.1 16.3-1.7 30.3-3.1 32.6-17.2 1.7-10.2 1.3-29.1-4.9-51.3-5-17.6-15.4-43.3-36.9-66-27.9-29.4-51.5-49.1-65.6-60.8-5.6-4.6-9.5-7.9-11.4-9.9l0.9-0.9c1.8 1.9 5.8 5.2 11.2 9.8 14.2 11.7 37.8 31.4 65.7 60.8 38.3 40.4 46.3 94.1 42.3 118.6-2.5 15.1-17.7 16.6-33.8 18.2-8.1 0.8-16.4 1.6-24 4.1-17.6 5.7-23.8 12.7-36.2 26.7-3.7 4.2-7.9 8.9-13.1 14.4zm66.4-76.1c-4.9 0-11-1.8-18.1-3.9-10.7-3.2-22.8-6.8-35.2-5.6l-0.1-1.3c12.7-1.2 24.9 2.4 35.6 5.6 10.9 3.3 19.5 5.8 24.2 2.1 2.8-2.3 4.2-6.7 4.2-13.7 0-33.1-52.4-81.1-52.9-81.6l0.8-1c0.1 0.2 13.5 12.3 26.6 28.5 17.7 21.7 26.7 40 26.7 54.1 0 7.4-1.5 12.2-4.6 14.7-1.9 1.5-4.4 2.1-7.2 2.1zm27.4 421.2c-3.5-10.2-26.4-85.6-19.1-98.5 4.9-8.6 41.5-42.7 68.2-67.6 12.6-11.8 23.6-22 27.3-25.9 10.8-11.4 23.9-45.8 23.9-69.7 0-11.9-2.7-47.6-5.4-82.2-2.7-34.5-5.2-67.1-5.2-77.9 0-22.2-15.9-113.7-25.1-130.8-1.8-3.1-5.4-9.4-9.9-17.4-8.2-14.6-19.5-34.4-30.5-54.4-10.2-18.6-17.7-32.9-22.8-43.6-6.7-8.4-9.7-19.4-8.6-31.6 1-10.2 4.8-20.8 10.5-29.2 9-16.6 22.7-30.5 36-43.9 24-24.3 46.7-47.2 42.7-84.7-6-67.1-71.6-101.8-135-126.9l0.4-1.3c63.8 25.3 129.8 60.3 135.9 128.1 4 38.1-18.9 61.2-43.2 85.8-13.2 13.3-26.9 27.1-35.8 43.6-15.5 23-11.9 46.8-1.9 59.3 5.2 10.9 12.7 25.1 22.9 43.8 11 19.9 22.2 39.8 30.5 54.3 4.5 8 8.1 14.3 9.8 17.5 9.7 17.7 25.4 108.5 25.4 131.4 0 10.8 2.5 43.4 5.1 77.8 2.7 34.6 5.5 70.3 5.5 82.3 0 24.2-13.4 59.1-24.3 70.6-3.8 4-14.2 13.7-27.4 26-26.6 24.8-63.1 58.9-67.9 67.3-6.5 11.4 13.5 80.7 19.2 97.4zm1.4-81.1l-0.9-1c0.6-0.5 61.9-58.5 76.8-74.2 6.6-6.9 15.1-27 23.4-55.1 6.9-23.4 12.1-47.4 12.1-55.9 0-5.9-1.6-11.6-3.7-18.9-4.1-14.2-9.6-33.6-9.6-71.8 0-24.1 1-42 1.7-55.1 1.1-19.1 1.6-29.6-1.7-38.9-3.5-9.7-10.7-41.1-17.1-68.8-4.1-17.7-7.7-33.1-9.6-39.7-2.2-8.1-14-29.3-26.4-51.8l-1.8-3.3c-6.6-11.9-13-23.5-17.8-33.2-13.7-17.7-6.7-36.2 0.1-54.2 2.9-7.9 6-16 7.3-24 0-1.6-1.6-3.9-3.1-6.1-2.2-3.2-4.4-6.6-3.1-9.4 7.5-12.6 18.7-23 29.5-33 20.3-18.8 39.5-36.6 36.8-67.3-3.7-38.7-22.8-73.6-56.5-103.6-26.9-23.9-63.6-44.3-103.4-57.6l0.4-1.2c28.2 9.4 69.1 27.1 103.8 57.8 34 30.2 53.2 65.4 57 104.5 2.7 31.4-17.6 50.2-37.2 68.3-10.8 10-22 20.4-29.3 32.7-1 2.1 1.1 5.1 3 8 1.7 2.5 3.3 4.9 3.3 7-1.3 8.2-4.4 16.5-7.4 24.4-6.9 18.4-13.5 35.8-0.2 53 4.9 9.8 11.3 21.3 17.9 33.3l1.8 3.3c12.5 22.5 24.2 43.8 26.5 52 1.9 6.7 5.5 22 9.6 39.8 6.4 27.7 13.6 59 17.1 68.7 3.4 9.5 2.8 20.1 1.7 39.4-0.7 13.1-1.7 30.9-1.7 55 0 38 5.5 57.3 9.6 71.4 2.1 7.4 3.8 13.2 3.8 19.3 0 16.7-20.4 95.6-35.9 111.9-15 15.8-76.2 73.7-76.8 74.3zm33.3 6.8l-0.8-1c0.6-0.5 52.4-47.4 61.8-57.4 9.7-10.2 39.2-122.5 39.2-135.5 0-6.4-1.4-12.5-3.2-20.2-2-8.4-4.5-18.7-6.3-34-3.4-28.3-4.2-87.8-4.2-106.4 0-12.9-22.3-124.1-31.4-147.1-2-4.8-5.1-12.1-10.3-23.7-2.1-4.6-4.2-9.5-6.5-14.4-2.5-5.6-5-11.3-7.5-16.8-20.6-29.2-11.2-63.3 2-95.7 2-4.3 1-9.7-0.1-15-1-5.2-2-10.1 0.2-13.6 4.8-10.2 12.9-19.2 20.8-28 12.7-14.1 24.7-27.5 24.7-46 1-42.6-17.2-85.3-51.1-120.4-31.6-32.6-73.5-55.1-114.9-61.6l0.1-1.3c41.7 6.6 83.9 29.1 115.7 62 34.1 35.3 52.4 78.4 51.5 121.3 0 19-12.8 33.2-25.1 46.9-7.8 8.7-15.9 17.7-20.7 27.8-1.9 3-1 7.7 0 12.7 1.1 5.4 2.2 11.1 0 15.7-13 32.1-22.3 65.8-2 94.5 2.5 5.7 5.1 11.3 7.5 16.9 2.3 5 4.5 9.9 6.5 14.5 5.2 11.6 8.4 18.9 10.3 23.7 8.4 21.2 31.5 132.7 31.5 147.6 0 18.6 0.8 78 4.2 106.2 1.9 15.2 4.3 25.6 6.3 33.9 1.8 7.8 3.3 13.9 3.3 20.5 0 13.1-29.8 126.1-39.6 136.4-9.5 10-61.3 57-61.9 57.5zm20.1 6.8l-0.9-1c0.3-0.3 35.1-38.8 46.6-51 10.9-11.4 46.4-140.9 46.4-155 0-4.3-2.1-13.3-4.8-24.7-5.3-22.3-12.5-52.9-12.5-81.7 0-15 0.5-26.4 1-36.4 0.9-19 1.5-31.5-2.8-50.5-1.4-6.2-3.4-15.6-5.6-26.4-8.2-39-20.4-98-27.7-105.7-5-5.2-13.1-17.2-19.6-29.1-7.5-9.7-11.6-23.1-9.5-31.8 3.6-15.1 8.8-28.9 13.9-42.2 6.7-17.7 13.7-36 17.2-58.4 1.9-9.1 7.2-17.5 12.8-26.4 6.4-10.3 13.1-20.9 14.2-32.6 0-46.5-19.5-95.5-53.4-134.4-34.6-39.8-79.4-62.6-123-62.7v-1.3c43.9 0.1 89.1 23.1 124 63.1 34.1 39.2 53.6 88.5 53.6 135.4-1.1 12.1-7.8 22.8-14.4 33.2-5.5 8.8-10.7 17.1-12.6 26-3.5 22.4-10.5 40.8-17.3 58.6-5 13.3-10.2 27-13.8 42-2 8.4 2 21.3 9.4 30.8 6.5 11.8 14.4 23.7 19.4 28.9 7.5 7.9 19.8 67.2 28 106.4 2.2 10.7 4.2 20.1 5.6 26.3 4.4 19.1 3.8 31.8 2.8 50.9-0.4 10-1 21.3-1 36.3 0 28.7 7.2 59.1 12.5 81.4 2.7 11.5 4.8 20.5 4.8 25 0 6.4-8.5 41.4-18.9 78.1-6 20.9-20.6 70.2-27.8 77.9-11.6 12.1-46.3 50.6-46.6 51zm58.4-22.9l-1.1-0.5c0.5-1.6 56.3-158.9 56.3-186.1 0-13.3-4.9-37.5-10.1-63.2-5.6-27.5-11.4-56-11.4-72.8 0-19.5-10.8-80.5-15.5-105.8-2.6-14-5.4-28.5-8-42-0.8-11.3-4.9-23-8.9-34.2-6.6-18.3-13.3-37.2-5.5-55 22.3-57.6 41.6-114.7 33.2-179-7.5-51.8-30.6-103.2-63.2-140.9-25.9-29.8-69.8-65-131.8-63.2l-0.1-1.3c62.6-1.8 106.7 33.6 132.8 63.6 32.8 37.9 56 89.5 63.5 141.6 8.5 64.7-10.9 121.9-33.2 179.7-7.6 17.4-1.3 35.2 5.4 54 4.1 11.3 8.2 23.1 9 34.6 2.7 13.3 5.4 27.8 8 41.8 4.7 25.4 15.5 86.5 15.5 106.1 0 16.7 5.8 45.1 11.4 72.5 5.2 25.8 10.1 50.1 10.1 63.5 0 27.5-54.1 180.1-56.4 186.6zm65.3 2.2l-1.2-0.3c6.2-24.4 13.5-48.4 20.6-71.6 7.4-24.2 15-49.2 21.6-75.3 4.3-16.1 7.5-29.3 9.8-39 2.6-10.9 3.9-17.5 3.9-19.6 0-7.6-7.6-35.9-15.8-66-6.4-23.8-13.7-50.7-18.2-71.2-3.2-14.2-6.5-34.8-9.8-61.1-1.6-12.5-3-24.2-4-34.8-3.5-20.2-8.3-47.8 2.5-66.1 8.3-19.2 28.8-34.2 48.5-48.7 35.3-25.9 68.7-50.3 38.7-97.1-16.1-24.1-32.2-46.9-47.6-69.1-33-46.9-64.1-91.3-93.6-143.1-21.9-37.8-53.3-69.3-91-91-36.3-20.9-78.3-32.9-121.6-34.6v-1.3c43.5 1.7 85.8 13.7 122.2 34.8 37.8 21.8 69.5 53.4 91.5 91.4 29.5 51.7 60.6 96.1 93.5 143.1 15.5 22.1 31.5 44.9 47.6 69 30.7 47.9-4.7 73.9-39 99-19.6 14.4-39.9 29.3-48.1 48.2-10.6 17.9-5.8 45.3-2.4 65.3 1.1 10.7 2.4 22.4 4 34.8 3.4 26.3 6.7 46.8 9.8 61 4.5 20.5 11.8 47.4 18.2 71.2 8.5 31.4 15.9 58.6 15.9 66.3 0 2.2-1.3 8.7-4 20-2.2 9.7-5.5 22.8-9.8 39-6.6 26.1-14.2 51.1-21.6 75.3-7.1 23.2-14.4 47.2-20.6 71.5zm-24.8-1.7l-2.4-0.5c4-18.8 10.6-37.3 17.1-55.2 4.7-13.1 9.6-26.7 13.4-40.5 4.9-15.4 9.2-29.5 12.9-42 9-30.2 13.5-48.5 13.5-54.3 0-20.8-9.7-96.1-24.5-162.3-4.8-21.6-9.6-45-14-67.6-2.1-11.2-4.1-21.7-5.8-31.4-25.7-59.2 14.7-90.1 53.8-120 11.1-8.4 22.5-17.1 32.2-26.4 5.7-6 3.4-23.2-2.4-33.3-39.1-67.5-75.9-128.2-114.8-192.3l-20-33c-39.7-66.1-114.6-106.5-190.7-102.9l-0.1-2.7c77-3.5 152.7 37.4 192.9 104.2l20 33c38.9 64.1 75.7 124.8 114.9 192.3 6.5 11.4 8.6 29.5 1.9 36.6-9.8 9.4-21.3 18.2-32.4 26.7-40.1 30.6-77.9 59.6-52.9 116.9v0.3c1.7 9.7 3.7 20.3 5.8 31.4 4.4 22.7 9.2 46.1 14 67.6 14.8 66.4 24.6 142 24.6 162.9 0 6.2-4.4 24.2-13.6 55.1-3.7 12.5-8 26.6-12.9 42-3.9 13.8-8.8 27.4-13.5 40.6-6.4 17.8-13 36.2-17 54.8zm14.1-2.2l-1.2-0.3c3.7-13.7 8.1-26.9 12.4-39.6 5.8-17.4 11.8-35.4 15.9-54.6 4.3-14.7 8.7-30.5 13.1-47.1 9.2-34.5 13.8-54.7 13.8-60.3 0-5.9-5.4-29.8-12.9-63-7.5-33.4-16.9-75-24.9-116.1-3.3-17.5-6.2-33.7-8.5-48.1-19.1-55.3 5.8-106.1 66.6-135.7 17.1-8 37.3-29.3 28.8-51.6-18.5-44.6-46-84-72.6-122.1-24.4-35-49.7-71.2-68.5-111.9-17.6-36.1-46-65.6-84.4-87.6-34.1-19.5-75.4-32.4-119.4-37.2l0.2-1.3c44.1 4.8 85.5 17.8 119.8 37.4 38.6 22.1 67.2 51.7 84.9 88.1 18.8 40.6 44 76.7 68.4 111.7 26.7 38.2 54.2 77.6 72.7 122.4 4.9 12.9 0.3 24.4-4.5 31.8-5.7 9-14.8 16.8-24.9 21.5-60.1 29.3-84.8 79.4-65.9 134.2 2.3 14.5 5.2 30.7 8.6 48.2 7.9 41 17.3 82.6 24.8 116 7.5 33.2 13 57.3 13 63.3 0 5.7-4.7 26.1-13.9 60.6-4.4 16.6-8.8 32.5-13.1 47.1-4.1 19.3-10.1 37.3-15.9 54.7-4.3 12.7-8.7 25.9-12.4 39.5zm-33.2-1.2l-1.2-0.4c0.1-0.2 5.5-18 12.5-42.2 4.1-13.9 8-27.5 11.7-40.3 15.8-55.7 24.1-89.7 24.1-98.3 0-20.7-24.4-168.4-34.8-215.2-2.7-12.1-5.8-26.4-8.4-38.9l-1.7-7.5c-2.4-11.5-4.9-23.1-7.3-34-1.4-6.9-3.5-14-5.4-20.8-6.6-22.9-12.9-44.5 1.6-61.4 65.9-88.2 44.3-142.4 14.5-217.3-4.9-12.2-9.9-24.8-14.8-38.2-0.3-0.8-0.7-1.9 0.1-2.3 0.6-0.4 1.2-0.8 9.4 10.9 4.2 6.1 8.7 12.8 10.5 15.7 13.3 24.5 18.2 39.9 22.5 53.5 6.5 20.1 11.1 34.7 39.7 66.1 15.7 14.5 32 43.4 18.7 62.1-9.2 12.5-20.5 24.1-31.3 35.3-31.4 32.3-60.9 62.8-40.8 112.1 2.4 14.3 5.3 31.3 8.8 52 5.2 30.6 10.9 63.5 16.4 95.3 11.2 64.7 20.9 120.5 20.9 124.7 0 5.1-13.1 50.6-25.3 91.5-4.6 15.3-8.9 29.5-12.8 42.1-5.3 16.9-14.5 46.1-16.8 51l-1.1-0.5c1.6-3.6 7.7-22.1 16.7-50.9 3.9-12.6 8.2-26.8 12.8-42.1 15.4-51.3 25.3-87 25.3-91.1 0-4.1-9.7-59.9-20.9-124.5-5.5-31.8-11.2-64.7-16.4-95.2-3.6-20.8-6.4-37.8-8.8-52-20.4-49.9 9.5-80.7 41.1-113.3 10.8-11.2 22.1-22.7 31.2-35.2 7.5-10.5 6.7-37-18.6-60.4-28.8-31.6-33.5-46.3-39.9-66.6-4.4-13.5-9.2-28.8-22.5-53.2-4-6.4-14.2-21.5-17.7-25.3 4.9 13.3 9.9 25.9 14.7 38 30 75.3 51.7 129.8-14.6 218.6-14.1 16.4-7.9 37.7-1.5 60.2 2 6.9 4.1 14 5.5 20.9 2.4 11 4.9 22.6 7.3 34l1.7 7.6c2.6 12.4 5.7 26.7 8.4 38.8 10.4 46.9 34.9 194.7 34.9 215.5 0 8.9-8.2 42.1-24.2 98.6-3.7 12.9-7.6 26.5-11.7 40.4-7.1 24.2-12.5 42-12.5 42.2zm1.4-537.5h-0.2c-1.3-0.1-2.3-0.8-2.8-2-2.4-5 3.8-18.9 10.4-30.2 4-5.6 8-10.7 11.8-15.5 19-24.2 34-43.3 26.4-89.2-0.2-1-0.3-2.3 0.5-2.9 0.8-0.6 1.9 0.1 2.2 0.3 7 4.5 27.2 36.1 25.5 50.7-5.4 33.9-33.3 56.3-60.3 77.9-4.4 3.5-9 7.2-13.3 10.8zm46.8-138.8c0 0-0.2 0.3 0 1.6 7.7 46.5-7.4 65.8-26.6 90.2-3.8 4.9-7.8 9.9-11.8 15.4-8 13.8-12.1 25.2-10.3 29q0.5 1 1.5 1.2c4.3-3.5 8.8-7.1 13.2-10.6 26.8-21.5 54.5-43.7 59.8-77.1 1.5-13-16.7-42.3-24-48.6-1.3-1.2-1.8-1.1-1.8-1.1zm73 714.8l-1.2-0.2c4.7-31.4 13.8-62.3 22.5-92.3 11.5-39.4 23.4-80.1 25.8-122.2 2.1-45-11.7-88.4-25.1-130.3-13.2-41.4-26.8-84.2-24.7-127.8 1.3-18.5 17.8-27.5 35.2-36.9 11.7-6.3 23.8-12.9 31.3-22.6 45.2-62 49.8-126.4 14.2-197-31.4-62.2-88.6-120.3-143.9-176.4-38.6-39.3-75.1-76.3-100.3-112.4-15.6-18.5-26.8-31.7-30.9-36.1-12.9-13.5-130.2-47.8-131.4-48.1l0.3-1.3c4.9 1.4 118.9 34.7 131.9 48.5 4.2 4.4 15 17.1 31 36.2 25.2 36 61.7 73 100.3 112.2 55.3 56.3 112.6 114.4 144.1 176.8 35.9 71.1 31.2 136-14.3 198.4-7.7 10-19.9 16.6-31.7 23-17.2 9.2-33.4 18-34.6 35.8-2 43.3 11.6 86 24.7 127.2 13.4 42.1 27.2 85.6 25.1 130.8-2.3 42.4-14.2 83.1-25.8 122.6-8.7 29.9-17.8 60.8-22.5 92.1zm-15.5-6.8l-1.2-0.2c4.6-30 12.9-60.1 21-89.3 13.2-47.7 26.8-97 24.2-147.2-3-37.8-15-74.8-26.6-110.6-11.9-36.8-24.2-74.9-27.3-114.7 0-8.4 4-19.9 10.6-24.6 32.2-17.5 88.5-54.9 104.1-109.9 7.9-27.5 4.2-55.8-10.9-83.9-50.6-92.2-119.5-167.8-186.2-240.9-23.5-25.8-47.8-52.5-71-79.6-6-7-11.3-13.2-15.8-18.4-8.6-10.1-14.2-16.7-16-18.6-13.3-14-122.9-44.9-124-45.2l0.3-1.3c4.5 1.3 111 31.3 124.6 45.6 1.8 1.9 7.4 8.5 16 18.6 4.5 5.2 9.8 11.4 15.8 18.4 23.2 27.1 47.5 53.8 71 79.5 66.7 73.2 135.7 148.9 186.4 241.2 15.2 28.5 19 57.1 11 85-15.7 55.4-72.3 93.1-104.6 110.6-6.3 4.4-10.1 15.4-10.1 23.5 3.2 39.6 15.4 77.5 27.3 114.3 11.6 35.8 23.6 72.9 26.7 110.9 2.6 50.4-11.1 99.9-24.3 147.7-8.1 29.1-16.4 59.2-21 89.1zm-11.2-11.3l-1.2-0.2c4.7-26.6 11.4-53.2 17.9-78.9 11.1-44.2 22.6-89.8 23.9-135.4 1.8-38-13.1-76.4-27.5-113.6-19.9-51.5-38.8-100.2-16-146.9 10-19.1 27.9-30.8 46.7-43.1 19.7-12.9 40.1-26.2 50.8-48.8 15.6-35.1 13.2-73.4-6.1-99.9-17.3-23.8-34.6-48.6-51.3-72.6-82.3-118.4-167.4-240.8-293.4-298-14.7-4.8-29.2-9.2-38.7-12.1-10.4-3.1-17.3-5.1-17.3-5.1l0.4-1.3c0 0 6.8 2 17.2 5.1 9.6 2.9 24 7.3 38.9 12.1 126.3 57.4 211.5 179.9 293.9 298.5 16.7 24 34 48.8 51.2 72.6 19.7 26.9 22.1 65.7 6.3 101.3-10.8 22.9-31.4 36.3-51.2 49.3-18.7 12.2-36.4 23.8-46.3 42.6-22.5 46.2-3.8 94.6 16.1 145.9 14.4 37.2 29.3 75.8 27.5 114.1-1.3 45.7-12.8 91.4-23.9 135.6-6.5 25.7-13.2 52.3-17.9 78.8zm-15.1-11.6l-1.2-0.3c4-21 9.1-42.2 14-62.7 11.8-49.7 24.1-101 22.6-153.6-0.8-32.2-13-66.7-24.7-100.1-19.2-54.4-37.3-105.7-10.4-147.4 12.3-19.2 31.2-35.9 49.5-52.1 40.4-35.6 78.6-69.2 41.8-124.4-15.1-22.3-30.3-45.8-45-68.4-92.7-142.9-188.6-290.7-349.3-321.2l0.2-1.3c161.3 30.6 257.3 178.6 350.1 321.7 14.7 22.7 29.9 46.2 45 68.5 37.4 56.1-1.1 90.1-42 126.1-18.2 16.1-37 32.7-49.3 51.8-26.5 41.2-8.5 92.2 10.5 146.2 11.9 33.5 24.1 68.2 24.9 100.6 1.4 52.7-10.8 104.1-22.7 153.9-4.9 20.5-10 41.7-14 62.7z"/></svg>